<svg width="58" height="58" viewBox="0 0 58 58" fill="none" xmlns="http://www.w3.org/2000/svg">
<rect x="0.557692" y="0.557692" width="56.8846" height="56.8846" rx="28.4423" fill="white"/>
<rect x="0.557692" y="0.557692" width="56.8846" height="56.8846" rx="28.4423" stroke="#14B9A4" stroke-width="1.11538"/>
<path d="M10.6717 29.5502L6.37866 30.3174H11.2592L12.2082 28.3769L14.3773 32.5738L16.682 26.3912L19.2126 38.0795L21.2462 33.9728L31.6399 33.6118L20.5683 33.2959L19.5742 34.8302L16.9531 21.5625L14.061 29.5502L12.2082 25.7594L10.6717 29.5502Z" fill="#14B9A4"/>
<g clip-path="url(#clip0_244_807)">
<path d="M31.0748 25.9877L26.7817 26.7549H31.6623L32.6113 24.8144L34.7804 29.0113L37.0851 22.8287L39.6157 34.517L41.6493 30.4103L52.043 30.0493L40.9714 29.7334L39.9772 31.2677L37.3562 18L34.464 25.9877L32.6113 22.1969L31.0748 25.9877Z" fill="#14B9A4"/>
</g>
<rect width="22.0226" height="24.6135" transform="translate(18.3616 15.7329)" fill="white"/>
<g filter="url(#filter0_d_244_807)">
<rect x="32.6118" y="27.3916" width="0.971587" height="6.8011" rx="0.485793" transform="rotate(90 32.6118 27.3916)" fill="#14B9A4"/>
<rect x="28.7251" y="24.8008" width="0.971586" height="6.47724" rx="0.485793" fill="#14B9A4"/>
<path d="M27.1059 30.4688L26.878 32.5192C26.8234 33.0113 26.4075 33.3835 25.9124 33.3835H23.2195C22.5041 33.3835 21.9241 33.9635 21.9241 34.679V37.2398C21.9241 37.2583 21.9342 37.2754 21.9505 37.2842L26.3817 39.6897C27.0963 40.0776 27.982 39.9399 28.5451 39.3534V39.3534C29.6465 38.2061 28.8334 36.2983 27.2429 36.2983H25.1627" stroke="#0098DE" stroke-width="0.647724"/>
<path d="M29.0488 32.4116V38.1886C29.0488 38.6432 29.1963 39.0854 29.469 39.4491V39.4491C29.8161 39.9119 30.3609 40.1843 30.9395 40.1843H31.0068C32.2528 40.1843 33.4594 39.7475 34.4166 38.9498L34.8783 38.565" stroke="#0098DE" stroke-width="0.647724"/>
<path d="M39.0886 31.4399V32.1914C39.0886 32.9706 38.8724 33.7344 38.464 34.398L37.7931 35.4882L37.3228 36.2525C36.8954 36.9471 35.9401 37.0787 35.3408 36.5255L34.3926 35.6501" stroke="#0098DE" stroke-width="0.647724"/>
<path d="M33.0975 37.7555L32.4206 37.0223C31.7132 36.2559 31.737 35.0677 32.4745 34.3302L33.3428 33.4619C34.1016 32.7031 35.332 32.7031 36.0908 33.4619L36.8219 34.193" stroke="#0098DE" stroke-width="0.647724"/>
<path d="M31.9639 24.9631V23.0199C31.9639 22.4833 32.3989 22.0483 32.9355 22.0483H35.9899C36.7573 22.0483 37.4194 22.5871 37.5754 23.3386L38.6845 28.6823C38.8931 29.6875 38.1256 30.6307 37.0989 30.6307H33.0974" stroke="#0098DE" stroke-width="0.647724"/>
<path d="M23.3813 31.2783V29.0214C23.3813 28.3281 23.9889 27.7918 24.6768 27.8778V27.8778" stroke="#0098DE" stroke-width="0.647724"/>
<path d="M35.0405 24.8008V27.0578C35.0405 27.751 34.433 28.2873 33.7451 28.2014V28.2014" stroke="#0098DE" stroke-width="0.647724"/>
<path d="M26.9439 24.9629H21.924C20.672 24.9629 19.657 25.9779 19.657 27.2299V27.2299V32.5388C19.657 33.3091 19.8186 34.0709 20.1315 34.7748L20.3047 35.1645" stroke="#0098DE" stroke-width="0.647724"/>
<path d="M24.0293 21.4004H27.5464C28.2442 21.4004 28.8575 21.863 29.0492 22.5339V22.5339" stroke="#0098DE" stroke-width="0.647724"/>
<path d="M29.2109 18.1621V23.3439" stroke="#0098DE" stroke-width="0.971586"/>
<path d="M20.7905 23.3438L22.9165 19.8511C24.2101 17.726 27.0484 17.1691 29.049 18.6478V18.6478" stroke="#0098DE" stroke-width="0.647724"/>
<path d="M36.3359 21.0766L35.4977 19.6936C34.2091 17.5674 31.3723 17.0079 29.3729 18.4857V18.4857" stroke="#0098DE" stroke-width="0.647724"/>
</g>
<defs>
<filter id="filter0_d_244_807" x="18.0376" y="17.334" width="22.6705" height="25.7652" filterUnits="userSpaceOnUse" color-interpolation-filters="sRGB">
<feFlood flood-opacity="0" result="BackgroundImageFix"/>
<feColorMatrix in="SourceAlpha" type="matrix" values="0 0 0 0 0 0 0 0 0 0 0 0 0 0 0 0 0 0 127 0" result="hardAlpha"/>
<feOffset dy="1.29545"/>
<feGaussianBlur stdDeviation="0.647724"/>
<feComposite in2="hardAlpha" operator="out"/>
<feColorMatrix type="matrix" values="0 0 0 0 0.0324324 0 0 0 0 0.3 0 0 0 0 0.265946 0 0 0 0.1 0"/>
<feBlend mode="normal" in2="BackgroundImageFix" result="effect1_dropShadow_244_807"/>
<feBlend mode="normal" in="SourceGraphic" in2="effect1_dropShadow_244_807" result="shape"/>
</filter>
<clipPath id="clip0_244_807">
<rect width="25.2612" height="16.517" fill="white" transform="translate(26.7817 18)"/>
</clipPath>
</defs>
</svg>
