<svg width="259" height="58" viewBox="0 0 259 58" fill="none" xmlns="http://www.w3.org/2000/svg">
<rect x="8.55769" y="0.557692" width="56.8846" height="56.8846" rx="28.4423" fill="white"/>
<rect x="8.55769" y="0.557692" width="56.8846" height="56.8846" rx="28.4423" stroke="#F2F2F2" stroke-width="1.11538"/>
<path d="M18.671 29.5502L14.3779 30.3174H19.2585L20.2074 28.3769L22.3766 32.5738L24.6813 26.3912L27.2119 38.0795L29.2455 33.9728L39.6392 33.6118L28.5676 33.2959L27.5734 34.8302L24.9524 21.5625L22.0602 29.5502L20.2074 25.7594L18.671 29.5502Z" fill="#14B9A4"/>
<g clip-path="url(#clip0_214_10958)">
<path d="M39.0743 25.9877L34.7812 26.7549H39.6618L40.6108 24.8144L42.7799 29.0113L45.0846 22.8287L47.6152 34.517L49.6488 30.4103L60.0425 30.0493L48.9709 29.7334L47.9767 31.2677L45.3557 18L42.4636 25.9877L40.6108 22.1969L39.0743 25.9877Z" fill="#14B9A4"/>
</g>
<rect width="22.0226" height="24.6135" transform="translate(26.3613 15.7329)" fill="white"/>
<g filter="url(#filter0_d_214_10958)">
<rect x="40.6113" y="27.3916" width="0.971587" height="6.8011" rx="0.485793" transform="rotate(90 40.6113 27.3916)" fill="#14B9A4"/>
<rect x="36.7256" y="24.8008" width="0.971586" height="6.47724" rx="0.485793" fill="#14B9A4"/>
<path d="M35.1056 30.4688L34.8778 32.5192C34.8231 33.0113 34.4072 33.3835 33.9121 33.3835H31.2193C30.5038 33.3835 29.9238 33.9635 29.9238 34.679V37.2398C29.9238 37.2583 29.934 37.2754 29.9502 37.2842L34.3815 39.6897C35.0961 40.0776 35.9818 39.9399 36.5448 39.3534V39.3534C37.6463 38.2061 36.8331 36.2983 35.2427 36.2983H33.1624" stroke="#0098DE" stroke-width="0.647724"/>
<path d="M37.0488 32.4116V38.1886C37.0488 38.6432 37.1963 39.0854 37.469 39.4491V39.4491C37.8161 39.9119 38.3609 40.1843 38.9395 40.1843H39.0068C40.2528 40.1843 41.4594 39.7475 42.4166 38.9498L42.8783 38.565" stroke="#0098DE" stroke-width="0.647724"/>
<path d="M47.0886 31.4399V32.1914C47.0886 32.9706 46.8724 33.7344 46.464 34.398L45.7931 35.4882L45.3228 36.2525C44.8954 36.9471 43.9401 37.0787 43.3408 36.5255L42.3926 35.6501" stroke="#0098DE" stroke-width="0.647724"/>
<path d="M41.0975 37.7555L40.4206 37.0223C39.7132 36.2559 39.737 35.0677 40.4745 34.3302L41.3428 33.4619C42.1016 32.7031 43.332 32.7031 44.0908 33.4619L44.8219 34.193" stroke="#0098DE" stroke-width="0.647724"/>
<path d="M39.9639 24.9631V23.0199C39.9639 22.4833 40.3989 22.0483 40.9355 22.0483H43.9899C44.7573 22.0483 45.4194 22.5871 45.5754 23.3386L46.6845 28.6823C46.8931 29.6875 46.1256 30.6307 45.0989 30.6307H41.0974" stroke="#0098DE" stroke-width="0.647724"/>
<path d="M31.3818 31.2783V29.0214C31.3818 28.3281 31.9894 27.7918 32.6773 27.8778V27.8778" stroke="#0098DE" stroke-width="0.647724"/>
<path d="M43.041 24.8008V27.0578C43.041 27.751 42.4334 28.2873 41.7456 28.2014V28.2014" stroke="#0098DE" stroke-width="0.647724"/>
<path d="M34.9441 24.9629H29.9243C28.6722 24.9629 27.6572 25.9779 27.6572 27.2299V27.2299V32.5388C27.6572 33.3091 27.8189 34.0709 28.1318 34.7748L28.305 35.1645" stroke="#0098DE" stroke-width="0.647724"/>
<path d="M32.0293 21.4004H35.5464C36.2442 21.4004 36.8575 21.863 37.0492 22.5339V22.5339" stroke="#0098DE" stroke-width="0.647724"/>
<path d="M37.2109 18.1621V23.3439" stroke="#0098DE" stroke-width="0.971586"/>
<path d="M28.791 23.3438L30.917 19.8511C32.2106 17.726 35.0489 17.1691 37.0495 18.6478V18.6478" stroke="#0098DE" stroke-width="0.647724"/>
<path d="M44.3359 21.0766L43.4977 19.6936C42.2091 17.5674 39.3723 17.0079 37.3729 18.4857V18.4857" stroke="#0098DE" stroke-width="0.647724"/>
</g>
<path d="M79.5739 36V22.0279H82.6079L87.059 30.8902L91.4502 22.0279H94.4841V36H91.9292V26.3593L88.037 34.004H86.021L82.1288 26.3593V36H79.5739ZM101.945 36.2395C100.947 36.2395 100.063 36.0266 99.2908 35.6008C98.519 35.175 97.9135 34.5762 97.4744 33.8044C97.0353 33.0326 96.8157 32.141 96.8157 31.1297C96.8157 30.1051 97.0286 29.1936 97.4545 28.3952C97.8936 27.5968 98.4924 26.978 99.2509 26.5389C100.023 26.0865 100.928 25.8603 101.965 25.8603C102.937 25.8603 103.795 26.0732 104.54 26.499C105.285 26.9248 105.864 27.5103 106.277 28.2555C106.703 28.9873 106.916 29.8057 106.916 30.7106C106.916 30.8569 106.909 31.01 106.896 31.1696C106.896 31.3293 106.889 31.4957 106.876 31.6687H99.3507C99.4039 32.4404 99.67 33.0459 100.149 33.485C100.641 33.9241 101.234 34.1437 101.926 34.1437C102.444 34.1437 102.877 34.0306 103.223 33.8044C103.582 33.5649 103.848 33.2588 104.021 32.8862H106.616C106.43 33.5116 106.117 34.0838 105.678 34.6028C105.252 35.1084 104.72 35.5077 104.081 35.8004C103.456 36.0931 102.744 36.2395 101.945 36.2395ZM101.965 27.9361C101.34 27.9361 100.788 28.1157 100.309 28.475C99.8297 28.821 99.5237 29.3533 99.3906 30.0718H104.321C104.281 29.4198 104.041 28.9008 103.602 28.515C103.163 28.1291 102.617 27.9361 101.965 27.9361ZM113.615 36.2395C112.684 36.2395 111.852 36.0133 111.12 35.5609C110.388 35.1084 109.81 34.4897 109.384 33.7046C108.958 32.9195 108.745 32.0279 108.745 31.0299C108.745 30.0319 108.958 29.147 109.384 28.3752C109.81 27.5901 110.388 26.978 111.12 26.5389C111.852 26.0865 112.684 25.8603 113.615 25.8603C114.36 25.8603 115.013 26 115.571 26.2794C116.13 26.5589 116.583 26.9514 116.929 27.4571V21.6287H119.484V36H117.208L116.929 34.5828C116.609 35.022 116.184 35.4078 115.651 35.7405C115.132 36.0732 114.454 36.2395 113.615 36.2395ZM114.154 34.004C114.979 34.004 115.651 33.7312 116.17 33.1856C116.702 32.6267 116.969 31.9148 116.969 31.0499C116.969 30.1849 116.702 29.4797 116.17 28.9341C115.651 28.3752 114.979 28.0958 114.154 28.0958C113.343 28.0958 112.671 28.3686 112.138 28.9142C111.606 29.4597 111.34 30.165 111.34 31.0299C111.34 31.8949 111.606 32.6068 112.138 33.1657C112.671 33.7245 113.343 34.004 114.154 34.004ZM122.145 36V22.0279H127.754C129.204 22.0279 130.309 22.3672 131.067 23.0459C131.839 23.7112 132.225 24.5695 132.225 25.6207C132.225 26.499 131.985 27.2042 131.506 27.7365C131.041 28.2555 130.469 28.6081 129.79 28.7944C130.588 28.9541 131.247 29.3533 131.766 29.992C132.285 30.6174 132.544 31.3493 132.544 32.1876C132.544 33.2921 132.145 34.2036 131.347 34.9222C130.548 35.6407 129.417 36 127.954 36H122.145ZM124.7 27.8962H127.375C128.093 27.8962 128.645 27.7299 129.031 27.3972C129.417 27.0645 129.61 26.5921 129.61 25.98C129.61 25.3945 129.417 24.9354 129.031 24.6028C128.659 24.2568 128.093 24.0838 127.335 24.0838H124.7V27.8962ZM124.7 33.9241H127.554C128.313 33.9241 128.898 33.7512 129.311 33.4052C129.737 33.0459 129.95 32.5469 129.95 31.9082C129.95 31.2561 129.73 30.7438 129.291 30.3712C128.852 29.9987 128.26 29.8124 127.514 29.8124H124.7V33.9241ZM139.428 36.2395C138.47 36.2395 137.605 36.02 136.833 35.5808C136.074 35.1417 135.469 34.5363 135.017 33.7645C134.577 32.9794 134.358 32.0745 134.358 31.0499C134.358 30.0253 134.584 29.1271 135.037 28.3553C135.489 27.5702 136.094 26.9581 136.853 26.5189C137.625 26.0798 138.49 25.8603 139.448 25.8603C140.393 25.8603 141.244 26.0798 142.003 26.5189C142.774 26.9581 143.38 27.5702 143.819 28.3553C144.271 29.1271 144.498 30.0253 144.498 31.0499C144.498 32.0745 144.271 32.9794 143.819 33.7645C143.38 34.5363 142.774 35.1417 142.003 35.5808C141.231 36.02 140.373 36.2395 139.428 36.2395ZM139.428 34.0239C140.093 34.0239 140.672 33.7778 141.164 33.2854C141.657 32.7798 141.903 32.0346 141.903 31.0499C141.903 30.0652 141.657 29.3267 141.164 28.8343C140.672 28.3287 140.1 28.0758 139.448 28.0758C138.769 28.0758 138.184 28.3287 137.691 28.8343C137.212 29.3267 136.973 30.0652 136.973 31.0499C136.973 32.0346 137.212 32.7798 137.691 33.2854C138.184 33.7778 138.762 34.0239 139.428 34.0239ZM150.803 36C149.765 36 148.934 35.7472 148.308 35.2415C147.683 34.7359 147.37 33.8377 147.37 32.5469V28.2355H145.674V26.0998H147.37L147.67 23.4451H149.925V26.0998H152.6V28.2355H149.925V32.5669C149.925 33.0459 150.025 33.3786 150.225 33.5649C150.437 33.7379 150.797 33.8243 151.302 33.8243H152.54V36H150.803Z" fill="#1A1F21"/>
<path d="M158.984 36L164.094 22.0279H166.968L172.078 36H169.363L168.246 32.7665H162.796L161.659 36H158.984ZM163.495 30.7704H167.547L165.511 24.962L163.495 30.7704ZM173.878 36V22.0279H176.433V36H173.878Z" fill="#14B9A4"/>
<defs>
<filter id="filter0_d_214_10958" x="26.0376" y="17.334" width="22.67" height="25.7652" filterUnits="userSpaceOnUse" color-interpolation-filters="sRGB">
<feFlood flood-opacity="0" result="BackgroundImageFix"/>
<feColorMatrix in="SourceAlpha" type="matrix" values="0 0 0 0 0 0 0 0 0 0 0 0 0 0 0 0 0 0 127 0" result="hardAlpha"/>
<feOffset dy="1.29545"/>
<feGaussianBlur stdDeviation="0.647724"/>
<feComposite in2="hardAlpha" operator="out"/>
<feColorMatrix type="matrix" values="0 0 0 0 0.0324324 0 0 0 0 0.3 0 0 0 0 0.265946 0 0 0 0.1 0"/>
<feBlend mode="normal" in2="BackgroundImageFix" result="effect1_dropShadow_214_10958"/>
<feBlend mode="normal" in="SourceGraphic" in2="effect1_dropShadow_214_10958" result="shape"/>
</filter>
<clipPath id="clip0_214_10958">
<rect width="25.2612" height="16.517" fill="white" transform="translate(34.7812 18)"/>
</clipPath>
</defs>
</svg>
