<svg width="18" height="18" viewBox="0 0 18 18" fill="none" xmlns="http://www.w3.org/2000/svg">
<g id="vuesax/outline/trash">
<g id="trash">
<path id="Vector" d="M15.7502 5.04785C15.7352 5.04785 15.7127 5.04785 15.6902 5.04785C11.7227 4.65035 7.76274 4.50035 3.84024 4.89785L2.31024 5.04785C1.99524 5.07785 1.71774 4.85285 1.68774 4.53785C1.65774 4.22285 1.88274 3.95285 2.19024 3.92285L3.72024 3.77285C7.71024 3.36785 11.7527 3.52535 15.8027 3.92285C16.1102 3.95285 16.3352 4.23035 16.3052 4.53785C16.2827 4.83035 16.0352 5.04785 15.7502 5.04785Z" fill="#595D62"/>
<path id="Vector_2" d="M6.37507 4.29C6.34507 4.29 6.31507 4.29 6.27757 4.2825C5.97757 4.23 5.76757 3.9375 5.82007 3.6375L5.98507 2.655C6.10507 1.935 6.27007 0.9375 8.01757 0.9375H9.98257C11.7376 0.9375 11.9026 1.9725 12.0151 2.6625L12.1801 3.6375C12.2326 3.945 12.0226 4.2375 11.7226 4.2825C11.4151 4.335 11.1226 4.125 11.0776 3.825L10.9126 2.85C10.8076 2.1975 10.7851 2.07 9.99007 2.07H8.02507C7.23007 2.07 7.21507 2.175 7.10257 2.8425L6.93007 3.8175C6.88507 4.095 6.64507 4.29 6.37507 4.29Z" fill="#595D62"/>
<path id="Vector_3" d="M11.4073 17.0627H6.5923C3.9748 17.0627 3.8698 15.6152 3.7873 14.4452L3.2998 6.89268C3.2773 6.58518 3.5173 6.31518 3.8248 6.29268C4.1398 6.27768 4.4023 6.51018 4.4248 6.81768L4.9123 14.3702C4.9948 15.5102 5.0248 15.9377 6.5923 15.9377H11.4073C12.9823 15.9377 13.0123 15.5102 13.0873 14.3702L13.5748 6.81768C13.5973 6.51018 13.8673 6.27768 14.1748 6.29268C14.4823 6.31518 14.7223 6.57768 14.6998 6.89268L14.2123 14.4452C14.1298 15.6152 14.0248 17.0627 11.4073 17.0627Z" fill="#595D62"/>
<path id="Vector_4" d="M10.2451 12.9375H7.74756C7.44006 12.9375 7.18506 12.6825 7.18506 12.375C7.18506 12.0675 7.44006 11.8125 7.74756 11.8125H10.2451C10.5526 11.8125 10.8076 12.0675 10.8076 12.375C10.8076 12.6825 10.5526 12.9375 10.2451 12.9375Z" fill="#595D62"/>
<path id="Vector_5" d="M10.875 9.9375H7.125C6.8175 9.9375 6.5625 9.6825 6.5625 9.375C6.5625 9.0675 6.8175 8.8125 7.125 8.8125H10.875C11.1825 8.8125 11.4375 9.0675 11.4375 9.375C11.4375 9.6825 11.1825 9.9375 10.875 9.9375Z" fill="#595D62"/>
</g>
</g>
</svg>
