<svg width="18" height="18" viewBox="0 0 18 18" fill="none" xmlns="http://www.w3.org/2000/svg">
<g id="vuesax/outline/discover">
<g id="discover">
<path id="Vector" d="M3.6825 17.1151C2.865 17.1151 2.1675 16.8526 1.6575 16.3426C0.930003 15.6151 0.705003 14.5051 1.0275 13.2151L2.8875 5.76757C3.21 4.47757 4.47 3.22507 5.7525 2.90257L13.2 1.04257C14.49 0.720071 15.6 0.945071 16.3275 1.67257C17.055 2.40007 17.28 3.51007 16.9575 4.80007L15.0975 12.2476C14.775 13.5376 13.515 14.7901 12.2325 15.1126L4.785 16.9726C4.4025 17.0626 4.035 17.1151 3.6825 17.1151ZM13.485 2.12257L6.0375 3.99007C5.16 4.20757 4.2075 5.16007 3.9825 6.03757L2.1225 13.4851C1.8975 14.3776 2.0175 15.1051 2.4525 15.5476C2.8875 15.9826 3.6225 16.1026 4.515 15.8776L11.9625 14.0176C12.84 13.8001 13.7925 12.8401 14.01 11.9701L15.87 4.52257C16.095 3.63007 15.975 2.90257 15.54 2.46007C15.105 2.01757 14.3775 1.90507 13.485 2.12257Z" fill="#0098DE"/>
<path id="Vector_2" d="M9 12.1875C7.245 12.1875 5.8125 10.755 5.8125 9C5.8125 7.245 7.245 5.8125 9 5.8125C10.755 5.8125 12.1875 7.245 12.1875 9C12.1875 10.755 10.755 12.1875 9 12.1875ZM9 6.9375C7.86 6.9375 6.9375 7.86 6.9375 9C6.9375 10.14 7.86 11.0625 9 11.0625C10.14 11.0625 11.0625 10.14 11.0625 9C11.0625 7.86 10.14 6.9375 9 6.9375Z" fill="#0098DE"/>
</g>
</g>
</svg>
