<svg width="18" height="18" viewBox="0 0 18 18" fill="none" xmlns="http://www.w3.org/2000/svg">
<g id="vuesax/outline/receive-square">
<g id="receive-square">
<path id="Vector" d="M11.25 17.0625H6.75C2.6775 17.0625 0.9375 15.3225 0.9375 11.25V6.75C0.9375 2.6775 2.6775 0.9375 6.75 0.9375H11.25C15.3225 0.9375 17.0625 2.6775 17.0625 6.75V11.25C17.0625 15.3225 15.3225 17.0625 11.25 17.0625ZM6.75 2.0625C3.2925 2.0625 2.0625 3.2925 2.0625 6.75V11.25C2.0625 14.7075 3.2925 15.9375 6.75 15.9375H11.25C14.7075 15.9375 15.9375 14.7075 15.9375 11.25V6.75C15.9375 3.2925 14.7075 2.0625 11.25 2.0625H6.75Z" fill="#595D62"/>
<path id="Vector_2" d="M9.00008 11.4454C8.85758 11.4454 8.71508 11.3929 8.60258 11.2804L6.35258 9.03039C6.13508 8.81289 6.13508 8.45289 6.35258 8.23539C6.57008 8.01789 6.93008 8.01789 7.14758 8.23539L9.00008 10.0879L10.8526 8.23539C11.0701 8.01789 11.4301 8.01789 11.6476 8.23539C11.8651 8.45289 11.8651 8.81289 11.6476 9.03039L9.39758 11.2804C9.28508 11.3929 9.14258 11.4454 9.00008 11.4454Z" fill="#595D62"/>
<path id="Vector_3" d="M9 11.4453C8.6925 11.4453 8.4375 11.1903 8.4375 10.8828V4.88281C8.4375 4.57531 8.6925 4.32031 9 4.32031C9.3075 4.32031 9.5625 4.57531 9.5625 4.88281V10.8828C9.5625 11.1978 9.3075 11.4453 9 11.4453Z" fill="#595D62"/>
<path id="Vector_4" d="M8.99984 13.6726C7.41734 13.6726 5.82734 13.4176 4.31984 12.9151C4.02734 12.8176 3.86984 12.4951 3.96734 12.2026C4.06484 11.9101 4.37983 11.7451 4.67983 11.8501C7.46983 12.7801 10.5373 12.7801 13.3273 11.8501C13.6198 11.7526 13.9423 11.9101 14.0398 12.2026C14.1373 12.4951 13.9798 12.8176 13.6873 12.9151C12.1723 13.4251 10.5823 13.6726 8.99984 13.6726Z" fill="#595D62"/>
</g>
</g>
</svg>
