<svg width="350" height="234" viewBox="0 0 350 234" fill="none" xmlns="http://www.w3.org/2000/svg">
<path d="M102.612 57.219L50.2498 92.3447L101.824 169.666L154.186 134.54L102.612 57.219Z" fill="#F5F5F5"/>
<path d="M127.129 130.88L126.535 134.569L100.505 130.808L101.099 127.12L127.129 130.88Z" fill="#E0E0E0"/>
<path d="M114.02 117.724L117.755 118.264L113.614 143.965L109.879 143.426L114.02 117.724Z" fill="#E0E0E0"/>
<path d="M90.0443 85.0563C90.0816 85.1125 84.8339 88.6978 78.3253 93.0638C71.8144 97.4312 66.5075 100.925 66.4701 100.869C66.4328 100.813 71.6791 97.2285 78.1905 92.8612C84.6991 88.4952 90.0069 85.0006 90.0443 85.0563Z" fill="#E0E0E0"/>
<path d="M109.301 80.2084C109.338 80.2646 100.612 86.1834 89.8133 93.4266C79.0104 100.673 70.2259 106.5 70.1885 106.444C70.1512 106.388 78.8755 100.47 89.6779 93.224C100.477 85.9807 109.263 80.1527 109.301 80.2084Z" fill="#E0E0E0"/>
<path d="M113.161 85.9965C113.198 86.0526 104.472 91.9714 93.6731 99.2147C82.8702 106.461 74.0857 112.288 74.0483 112.232C74.011 112.175 82.7353 106.258 93.5377 99.012C104.337 91.7688 113.123 85.9408 113.161 85.9965Z" fill="#E0E0E0"/>
<path d="M117.02 91.7836C117.058 91.8398 108.332 97.7586 97.5329 105.002C86.73 112.248 77.9455 118.075 77.9081 118.019C77.8708 117.963 86.5951 112.045 97.3975 104.799C108.197 97.5555 116.983 91.7274 117.02 91.7836Z" fill="#E0E0E0"/>
<path d="M120.881 97.5707C120.918 97.6269 112.192 103.545 101.393 110.789C90.5903 118.035 81.8057 123.862 81.7684 123.806C81.7311 123.75 90.4554 117.832 101.258 110.586C112.056 103.343 120.843 97.515 120.881 97.5707Z" fill="#E0E0E0"/>
<path d="M277.703 109.033L233.728 138.532L277.042 203.469L321.017 173.97L277.703 109.033Z" fill="#F5F5F5"/>
<path d="M298.293 170.904L297.794 174.001L275.933 170.842L276.432 167.745L298.293 170.904Z" fill="#E0E0E0"/>
<path d="M287.284 159.854L290.421 160.307L286.943 181.892L283.806 181.439L287.284 159.854Z" fill="#E0E0E0"/>
<path d="M267.148 132.419C267.185 132.475 262.783 135.493 257.317 139.16C251.848 142.828 247.387 145.755 247.35 145.699C247.312 145.643 251.713 142.625 257.182 138.957C262.648 135.291 267.111 132.363 267.148 132.419Z" fill="#E0E0E0"/>
<path d="M283.32 128.348C283.357 128.404 276.034 133.382 266.965 139.465C257.892 145.551 250.51 150.437 250.473 150.381C250.435 150.325 257.757 145.348 266.83 139.263C275.898 133.18 283.283 128.292 283.32 128.348Z" fill="#E0E0E0"/>
<path d="M286.562 133.208C286.599 133.265 279.276 138.243 270.207 144.326C261.134 150.411 253.752 155.298 253.715 155.241C253.677 155.185 260.999 150.209 270.072 144.123C279.14 138.04 286.524 133.152 286.562 133.208Z" fill="#E0E0E0"/>
<path d="M289.803 138.069C289.841 138.125 282.517 143.103 273.448 149.186C264.376 155.272 256.993 160.158 256.956 160.102C256.919 160.046 264.241 155.069 273.313 148.984C282.382 142.9 289.766 138.013 289.803 138.069Z" fill="#E0E0E0"/>
<path d="M293.045 142.929C293.083 142.985 285.759 147.963 276.69 154.047C267.617 160.132 260.235 165.018 260.198 164.962C260.161 164.906 267.483 159.929 276.555 153.844C285.624 147.761 293.008 142.873 293.045 142.929Z" fill="#E0E0E0"/>
<path d="M208.129 60.0579L160.147 34.3232L122.362 105.176L170.343 130.911L208.129 60.0579Z" fill="#F5F5F5"/>
<path d="M162.13 108.748L159.086 109.794L151.359 88.3717L154.404 87.3262L162.13 108.748Z" fill="#E0E0E0"/>
<path d="M166.797 93.3799L167.907 96.4542L146.692 103.74L145.583 100.666L166.797 93.3799Z" fill="#E0E0E0"/>
<path d="M181.871 61.7732C181.833 61.8439 176.967 59.3069 171.003 56.1081C165.036 52.9079 160.231 50.2576 160.269 50.187C160.307 50.1168 165.172 52.6529 171.139 55.8526C177.103 59.0518 181.909 61.703 181.871 61.7732Z" fill="#E0E0E0"/>
<path d="M193.385 74.5184C193.347 74.5891 185.293 70.3425 175.398 65.0353C165.499 59.7259 157.507 55.3664 157.545 55.2958C157.583 55.2256 165.635 59.4708 175.534 64.7803C185.43 70.0874 193.423 74.4477 193.385 74.5184Z" fill="#E0E0E0"/>
<path d="M190.557 79.8216C190.519 79.8923 182.465 75.6457 172.57 70.3381C162.671 65.0286 154.679 60.6692 154.717 60.5985C154.755 60.5283 162.807 64.7735 172.706 70.083C182.602 75.3901 190.595 79.751 190.557 79.8216Z" fill="#E0E0E0"/>
<path d="M187.729 85.1244C187.691 85.195 179.637 80.9484 169.742 75.6408C159.843 70.3318 151.851 65.9719 151.889 65.9013C151.926 65.8306 159.979 70.0763 169.878 75.3857C179.773 80.6933 187.767 85.0542 187.729 85.1244Z" fill="#E0E0E0"/>
<path d="M184.901 90.4281C184.863 90.4987 176.809 86.2521 166.914 80.9445C157.015 75.6355 149.023 71.2756 149.061 71.205C149.099 71.1348 157.151 75.38 167.05 80.6894C176.945 85.997 184.938 90.3579 184.901 90.4281Z" fill="#E0E0E0"/>
<path opacity="0.2" d="M185.152 0H183.947V20.584H185.152V0Z" fill="black"/>
<path d="M156.442 45.4843H212.657C212.657 45.4843 207.467 20.5713 184.124 20.5713C163.36 20.5708 156.442 45.4843 156.442 45.4843Z" fill="#0098DE"/>
<path d="M185.152 0H183.947V20.584H185.152V0Z" fill="#0098DE"/>
<path d="M309.711 205.839C309.711 205.907 249.394 205.961 175.007 205.961C100.593 205.961 40.2892 205.906 40.2892 205.839C40.2892 205.772 100.593 205.718 175.007 205.718C249.394 205.718 309.711 205.773 309.711 205.839Z" fill="#263238"/>
<path d="M55.2001 176.53C56.7779 176.586 58.2591 177.445 59.2998 178.636C60.3405 179.826 60.9784 181.324 61.3867 182.853C62.1763 185.813 61.691 189.305 60.8496 192.25C57.6548 191.105 55.685 187.688 54.7941 185.892C53.3857 183.053 52.5602 177.064 55.2001 176.53Z" fill="#0098DE"/>
<path d="M65.4463 195.837C64.4383 194.385 64.4145 192.367 65.2115 190.789C66.0081 189.211 67.5393 188.073 69.2253 187.553C70.0051 187.313 70.9095 187.212 71.5876 187.667C72.2218 188.091 72.4957 188.925 72.4136 189.685C72.3319 190.445 71.9479 191.141 71.4947 191.756C69.9412 193.865 68.0517 195.62 65.4463 195.837Z" fill="#0098DE"/>
<path d="M65.7977 205.725C65.7823 205.728 65.7337 205.508 65.6549 205.11C65.5695 204.671 65.4589 204.105 65.3263 203.424C65.0743 202.006 64.6744 199.989 64.9768 197.759C65.2675 195.54 66.1486 193.642 67.0721 192.509C67.5267 191.936 67.9621 191.53 68.2841 191.281C68.4399 191.149 68.5771 191.069 68.6644 191.007C68.7535 190.948 68.8025 190.921 68.8072 190.927C68.8422 190.966 68.0605 191.449 67.1967 192.605C66.3217 193.742 65.4831 195.607 65.1966 197.789C64.8989 199.973 65.2675 201.971 65.4808 203.397C65.5951 204.113 65.6871 204.693 65.7403 205.096C65.793 205.499 65.8126 205.723 65.7977 205.725Z" fill="#263238"/>
<path d="M56.2305 181.035C56.2375 181.032 56.2819 181.116 56.3593 181.278C56.4443 181.462 56.5535 181.698 56.6883 181.991C56.9707 182.612 57.3673 183.516 57.8485 184.637C58.8112 186.878 60.0973 189.993 61.4404 193.465C62.783 196.938 63.9273 200.109 64.7229 202.415C65.1215 203.568 65.4355 204.504 65.6446 205.153C65.7417 205.461 65.8201 205.709 65.8807 205.902C65.9325 206.075 65.9559 206.166 65.9489 206.169C65.9414 206.171 65.9041 206.084 65.8387 205.917C65.7678 205.727 65.6763 205.483 65.5634 205.181C65.3207 204.514 64.9857 203.594 64.5755 202.467C63.742 200.176 62.5753 197.016 61.2337 193.545C59.8915 190.076 58.6287 186.953 57.7038 184.697C57.2493 183.588 56.8778 182.682 56.6085 182.025C56.4891 181.726 56.3925 181.484 56.3173 181.295C56.2539 181.128 56.2235 181.039 56.2305 181.035Z" fill="#263238"/>
<path d="M62.0055 199.183C60.1216 195.968 56.6039 193.776 52.8953 193.506C51.9507 193.438 50.8149 193.597 50.3939 194.448C49.9721 195.299 50.5363 196.308 51.1798 197.007C53.8566 199.914 58.3851 200.928 62.041 199.438" fill="#0098DE"/>
<path d="M54.3335 196.042C54.3345 196.026 54.5445 196.035 54.9248 196.064C55.1152 196.077 55.3481 196.094 55.6145 196.144C55.8805 196.193 56.1899 196.222 56.5194 196.315C56.8512 196.396 57.2171 196.477 57.596 196.615C57.9824 196.729 58.3791 196.895 58.7958 197.072C59.619 197.447 60.4921 197.937 61.3237 198.575C62.1493 199.22 62.8465 199.942 63.4135 200.649C63.686 201.011 63.9464 201.355 64.1494 201.704C64.3739 202.04 64.5405 202.377 64.6968 202.681C64.8643 202.98 64.9633 203.276 65.0729 203.525C65.1835 203.773 65.2526 203.997 65.3077 204.18C65.4211 204.546 65.4761 204.749 65.4616 204.753C65.4145 204.769 65.1873 203.951 64.5582 202.753C64.3949 202.457 64.2227 202.129 63.9949 201.803C63.7887 201.463 63.5264 201.13 63.2543 200.776C62.6878 200.088 61.9995 199.385 61.1889 198.751C60.3722 198.125 59.5177 197.638 58.7118 197.258C58.3039 197.079 57.9157 196.909 57.5372 196.789C57.1667 196.647 56.8073 196.558 56.4821 196.467C55.1731 196.135 54.3284 196.09 54.3335 196.042Z" fill="#263238"/>
<path d="M266.168 49.3622C264.796 49.679 264.128 51.2623 263.998 52.6686C263.868 54.0745 264.047 55.5594 263.458 56.8422C262.795 58.286 261.212 59.3503 261.16 60.9391C261.128 61.9074 261.701 62.8181 261.674 63.7869C261.628 65.3776 260.011 66.5799 259.926 68.1692C259.865 69.3135 260.624 70.4119 260.442 71.543C260.3 72.4234 259.616 73.1169 259.328 73.9603C258.752 75.6418 259.903 77.4927 261.404 78.439C263.076 79.4939 265.217 79.7658 267.098 79.163C268.98 78.5602 270.567 77.0931 271.319 75.2618C272.149 73.2405 271.968 70.9646 271.788 68.7865C271.225 61.9977 270.807 55.1972 270.534 48.3906" fill="#263238"/>
<path d="M262.185 73.3189C262.155 73.2922 262.56 73.1715 262.812 72.571C262.934 72.2776 262.996 71.8826 262.971 71.4287C262.955 70.9719 262.8 70.4744 262.631 69.9133C262.475 69.3573 262.271 68.7119 262.388 67.9945C262.505 67.2658 263.025 66.6672 263.5 66.0794C263.739 65.7813 263.978 65.4715 264.13 65.1191C264.289 64.7704 264.323 64.3712 264.202 63.9968C263.962 63.2321 263.214 62.6696 262.871 61.7869C262.702 61.3447 262.7 60.8589 262.796 60.4213C262.889 59.9795 263.067 59.5784 263.247 59.1965C263.612 58.4346 264.014 57.7359 264.174 56.9941C264.502 55.5096 264.348 54.0925 264.572 52.9286C264.774 51.7624 265.265 50.8858 265.752 50.4351C265.989 50.202 266.218 50.078 266.368 49.9942C266.528 49.9255 266.612 49.8936 266.615 49.9016C266.631 49.9278 266.269 50.0392 265.818 50.502C265.369 50.9583 264.917 51.8157 264.741 52.9572C264.648 53.5248 264.635 54.1632 264.611 54.8483C264.587 55.533 264.565 56.2767 264.392 57.0451C264.23 57.8239 263.816 58.5502 263.462 59.2986C263.111 60.0338 262.788 60.8958 263.099 61.7017C263.395 62.4983 264.147 63.0641 264.429 63.9247C264.567 64.353 264.522 64.8275 264.342 65.2113C264.171 65.6016 263.916 65.9208 263.673 66.2203C263.185 66.8118 262.697 67.3744 262.585 68.0296C262.469 68.681 262.649 69.3095 262.796 69.866C262.952 70.4224 263.103 70.9466 263.107 71.4226C263.119 71.8943 263.04 72.3052 262.898 72.6089C262.757 72.9146 262.564 73.1036 262.42 73.1996C262.276 73.2983 262.185 73.3189 262.185 73.3189Z" fill="#455A64"/>
<path d="M258.51 84.4111L254.298 96.5894L236.731 97.5339L233.802 104.071L252.142 105.932C255.799 107.448 259.978 105.59 261.312 101.853L266.207 88.1528L258.51 84.4111Z" fill="#B78876"/>
<path d="M294.847 199.226C294.847 199.226 281.973 158.221 281.7 156.89C281.453 155.687 286.372 126.178 286.992 118.541L269.597 119.192C269.597 119.192 269.597 119.238 269.596 119.319L262.202 119.73L268.824 203.593H276.829L276.035 175.769C280.971 189.059 288.044 202.602 288.044 202.602L294.847 199.226Z" fill="#B78876"/>
<path d="M276.361 185.741C276.368 185.486 276.264 176.419 276.264 176.419C276.164 176.961 273.196 168.546 273.267 168.034C273.304 167.769 276.361 185.741 276.361 185.741Z" fill="#A36957"/>
<path d="M272.929 164.05C272.91 164.049 272.893 164.23 272.877 164.558C272.86 164.886 272.856 165.361 272.888 165.948C272.899 166.242 272.93 166.563 272.968 166.907C273.012 167.25 273.058 167.618 273.138 168C273.283 168.765 273.507 169.593 273.792 170.443C274.373 172.139 275.015 173.623 275.47 174.7C275.686 175.191 275.871 175.613 276.027 175.967C276.164 176.265 276.248 176.426 276.265 176.419C276.282 176.412 276.231 176.238 276.123 175.929C276.016 175.619 275.853 175.175 275.645 174.629C275.234 173.534 274.62 172.039 274.044 170.358C273.762 169.517 273.534 168.703 273.378 167.952C273.294 167.577 273.24 167.216 273.187 166.879C273.14 166.54 273.099 166.225 273.077 165.935C273.021 165.356 272.996 164.884 272.982 164.558C272.965 164.231 272.947 164.05 272.929 164.05Z" fill="#A36957"/>
<path d="M268.674 204.005L268.67 203.251L276.87 202.893L276.892 206.002L276.386 206.037C274.136 206.169 264.933 206.55 263.427 206.097C261.747 205.592 268.674 204.005 268.674 204.005Z" fill="#455A64"/>
<path d="M277.006 205.814C277.006 205.818 276.958 205.823 276.866 205.83C276.745 205.838 276.612 205.847 276.463 205.856C276.06 205.875 275.565 205.898 274.981 205.925C273.728 205.975 271.998 206.021 270.086 206.029C268.173 206.037 266.441 206.007 265.189 205.968C264.605 205.946 264.11 205.927 263.706 205.912C263.557 205.903 263.424 205.896 263.304 205.889C263.212 205.883 263.163 205.878 263.164 205.875C263.164 205.871 263.212 205.869 263.305 205.869C263.426 205.87 263.558 205.871 263.708 205.873C264.111 205.879 264.607 205.888 265.191 205.898C266.444 205.918 268.174 205.938 270.086 205.929C271.997 205.921 273.727 205.886 274.979 205.855C275.563 205.84 276.059 205.827 276.462 205.817C276.612 205.814 276.744 205.811 276.865 205.81C276.957 205.81 277.006 205.811 277.006 205.814Z" fill="#263238"/>
<path d="M266.017 206.079C265.986 206.083 265.962 205.728 265.737 205.371C265.518 205.009 265.213 204.829 265.23 204.803C265.236 204.779 265.586 204.932 265.822 205.319C266.062 205.703 266.042 206.085 266.017 206.079Z" fill="#263238"/>
<path d="M268.42 204.846C268.397 204.86 268.281 204.72 268.162 204.533C268.042 204.345 267.964 204.181 267.987 204.166C268.009 204.151 268.125 204.292 268.245 204.479C268.364 204.667 268.443 204.831 268.42 204.846Z" fill="#263238"/>
<path d="M269.079 204.493C269.06 204.514 268.932 204.428 268.79 204.302C268.649 204.175 268.55 204.057 268.568 204.036C268.586 204.016 268.715 204.101 268.856 204.228C268.997 204.354 269.097 204.473 269.079 204.493Z" fill="#263238"/>
<path d="M269.493 203.719C269.494 203.747 269.304 203.772 269.068 203.775C268.833 203.779 268.641 203.759 268.641 203.732C268.64 203.705 268.831 203.68 269.066 203.676C269.302 203.673 269.493 203.692 269.493 203.719Z" fill="#263238"/>
<path d="M269.635 203.175C269.644 203.199 269.437 203.294 269.16 203.315C268.884 203.338 268.664 203.277 268.67 203.252C268.674 203.224 268.89 203.239 269.153 203.217C269.415 203.197 269.626 203.148 269.635 203.175Z" fill="#263238"/>
<path d="M268.14 204.133C268.141 204.145 267.94 204.17 267.616 204.132C267.455 204.113 267.263 204.075 267.057 204.011C266.955 203.975 266.848 203.948 266.738 203.88C266.686 203.845 266.628 203.796 266.608 203.717C266.586 203.638 266.627 203.549 266.686 203.506C267.187 203.244 267.689 203.525 267.876 203.784C267.979 203.916 268.027 204.045 268.049 204.134C268.07 204.224 268.069 204.275 268.063 204.276C268.044 204.283 268.026 204.069 267.822 203.828C267.722 203.71 267.569 203.596 267.373 203.538C267.188 203.484 266.924 203.47 266.749 203.583C266.665 203.645 266.698 203.743 266.791 203.798C266.877 203.854 266.989 203.887 267.086 203.923C267.285 203.991 267.47 204.035 267.626 204.062C267.94 204.117 268.14 204.117 268.14 204.133Z" fill="#263238"/>
<path d="M268.004 204.16C267.997 204.165 267.919 204.032 267.943 203.795C267.955 203.679 267.997 203.541 268.085 203.411C268.177 203.294 268.295 203.132 268.52 203.141C268.642 203.156 268.702 203.294 268.682 203.383C268.673 203.475 268.632 203.554 268.594 203.618C268.517 203.75 268.429 203.857 268.348 203.938C268.184 204.099 268.054 204.161 268.049 204.151C268.039 204.139 268.153 204.057 268.296 203.89C268.368 203.806 268.446 203.701 268.515 203.573C268.586 203.462 268.635 203.262 268.503 203.239C268.372 203.227 268.239 203.358 268.159 203.463C268.077 203.578 268.031 203.7 268.012 203.806C267.973 204.019 268.022 204.156 268.004 204.16Z" fill="#263238"/>
<path d="M276.831 203.576C276.829 203.595 276.598 203.555 276.229 203.6C275.864 203.642 275.357 203.794 274.916 204.148C274.476 204.503 274.218 204.967 274.099 205.316C273.975 205.667 273.964 205.903 273.945 205.9C273.939 205.9 273.936 205.841 273.945 205.735C273.952 205.629 273.977 205.476 274.032 205.294C274.137 204.93 274.395 204.441 274.854 204.071C275.313 203.702 275.845 203.555 276.222 203.53C276.412 203.516 276.566 203.525 276.67 203.54C276.776 203.554 276.832 203.57 276.831 203.576Z" fill="#263238"/>
<path d="M272.905 205.163C272.908 205.188 272.376 205.273 271.713 205.276C271.05 205.281 270.518 205.201 270.521 205.176C270.523 205.147 271.056 205.182 271.713 205.177C272.37 205.174 272.902 205.134 272.905 205.163Z" fill="#263238"/>
<path d="M274.503 205.146C274.523 205.166 274.46 205.259 274.406 205.382C274.351 205.504 274.323 205.614 274.295 205.612C274.268 205.612 274.252 205.483 274.316 205.341C274.379 205.2 274.485 205.126 274.503 205.146Z" fill="#263238"/>
<path d="M275.103 204.392C275.122 204.411 275.07 204.496 274.986 204.582C274.902 204.668 274.818 204.722 274.799 204.703C274.779 204.684 274.831 204.599 274.916 204.513C274.999 204.427 275.083 204.372 275.103 204.392Z" fill="#263238"/>
<path d="M275.964 204.044C275.958 204.072 275.85 204.071 275.73 204.114C275.609 204.154 275.524 204.222 275.503 204.203C275.481 204.188 275.549 204.071 275.698 204.021C275.847 203.969 275.972 204.019 275.964 204.044Z" fill="#263238"/>
<path d="M276.577 203.88C276.587 203.905 276.54 203.948 276.472 203.974C276.405 204 276.342 204.001 276.332 203.976C276.322 203.95 276.369 203.908 276.437 203.882C276.504 203.855 276.567 203.854 276.577 203.88Z" fill="#263238"/>
<path d="M287.883 203.28L287.572 202.593L294.906 198.898L296.197 201.726L295.749 201.965C293.75 203.01 285.51 207.137 283.952 207.343C282.213 207.572 287.883 203.28 287.883 203.28Z" fill="#455A64"/>
<path d="M296.224 201.507C296.226 201.51 296.184 201.535 296.103 201.579C295.996 201.636 295.878 201.698 295.746 201.768C295.386 201.951 294.944 202.175 294.422 202.441C293.3 203.001 291.74 203.753 289.999 204.546C288.257 205.34 286.665 206.023 285.507 206.502C284.965 206.722 284.505 206.908 284.131 207.06C283.992 207.114 283.868 207.162 283.755 207.205C283.669 207.237 283.622 207.253 283.621 207.25C283.619 207.246 283.663 207.225 283.747 207.187C283.858 207.138 283.98 207.085 284.117 207.024C284.488 206.865 284.943 206.669 285.48 206.438C286.631 205.942 288.218 205.249 289.958 204.457C291.698 203.664 293.262 202.921 294.392 202.378C294.919 202.124 295.366 201.909 295.729 201.734C295.864 201.67 295.984 201.613 296.094 201.562C296.177 201.523 296.222 201.504 296.224 201.507Z" fill="#263238"/>
<path d="M286.307 206.263C286.282 206.279 286.114 205.966 285.763 205.732C285.416 205.491 285.063 205.453 285.068 205.422C285.063 205.397 285.445 205.393 285.818 205.649C286.194 205.901 286.332 206.259 286.307 206.263Z" fill="#263238"/>
<path d="M287.995 204.151C287.98 204.174 287.818 204.094 287.632 203.972C287.446 203.85 287.308 203.732 287.322 203.71C287.337 203.687 287.5 203.768 287.686 203.889C287.872 204.011 288.01 204.128 287.995 204.151Z" fill="#263238"/>
<path d="M288.453 203.559C288.444 203.585 288.292 203.56 288.112 203.503C287.931 203.446 287.792 203.378 287.8 203.352C287.809 203.326 287.961 203.351 288.141 203.408C288.322 203.465 288.461 203.533 288.453 203.559Z" fill="#263238"/>
<path d="M288.515 202.682C288.527 202.707 288.363 202.808 288.15 202.908C287.937 203.008 287.755 203.069 287.743 203.044C287.732 203.019 287.896 202.918 288.109 202.818C288.321 202.718 288.504 202.657 288.515 202.682Z" fill="#263238"/>
<path d="M288.421 202.127C288.44 202.145 288.289 202.317 288.046 202.45C287.803 202.584 287.578 202.619 287.572 202.593C287.565 202.566 287.768 202.491 287.998 202.363C288.23 202.237 288.402 202.106 288.421 202.127Z" fill="#263238"/>
<path d="M287.449 203.616C287.455 203.626 287.281 203.732 286.971 203.83C286.816 203.879 286.626 203.923 286.412 203.949C286.303 203.958 286.195 203.977 286.066 203.961C286.005 203.951 285.932 203.93 285.881 203.866C285.829 203.803 285.831 203.705 285.867 203.642C286.216 203.197 286.79 203.247 287.066 203.406C287.214 203.485 287.309 203.583 287.366 203.655C287.422 203.728 287.441 203.776 287.437 203.778C287.423 203.792 287.319 203.605 287.035 203.469C286.895 203.403 286.709 203.361 286.507 203.389C286.315 203.415 286.069 203.511 285.955 203.686C285.905 203.777 285.975 203.853 286.082 203.865C286.183 203.88 286.299 203.865 286.402 203.858C286.611 203.838 286.797 203.802 286.951 203.763C287.26 203.683 287.443 203.601 287.449 203.616Z" fill="#263238"/>
<path d="M287.336 203.696C287.332 203.704 287.206 203.614 287.131 203.388C287.095 203.278 287.077 203.134 287.103 202.979C287.14 202.835 287.182 202.639 287.39 202.554C287.507 202.518 287.781 202.754 287.799 202.843C287.829 202.931 287.661 202.886 287.652 202.96C287.636 203.112 287.599 203.245 287.558 203.352C287.475 203.567 287.382 203.677 287.372 203.67C287.359 203.662 287.429 203.541 287.492 203.33C287.523 203.224 287.551 203.095 287.562 202.951C287.581 202.82 287.544 202.618 287.415 202.651C287.29 202.693 287.222 202.869 287.192 202.997C287.164 203.135 287.173 203.265 287.198 203.37C287.25 203.581 287.351 203.685 287.336 203.696Z" fill="#263238"/>
<path d="M295.151 199.538C295.157 199.556 294.929 199.614 294.611 199.806C294.295 199.994 293.894 200.342 293.637 200.846C293.38 201.35 293.335 201.88 293.368 202.247C293.399 202.618 293.485 202.837 293.468 202.843C293.462 202.845 293.435 202.793 293.399 202.693C293.363 202.593 293.324 202.443 293.299 202.254C293.246 201.879 293.281 201.327 293.549 200.801C293.818 200.275 294.243 199.923 294.576 199.746C294.744 199.655 294.888 199.6 294.99 199.57C295.091 199.541 295.149 199.532 295.151 199.538Z" fill="#263238"/>
<path d="M292.216 202.598C292.23 202.62 291.78 202.917 291.176 203.191C290.573 203.468 290.055 203.614 290.047 203.59C290.038 203.562 290.538 203.375 291.135 203.101C291.733 202.829 292.202 202.573 292.216 202.598Z" fill="#263238"/>
<path d="M293.667 201.926C293.693 201.935 293.674 202.047 293.675 202.181C293.674 202.315 293.694 202.426 293.667 202.437C293.643 202.447 293.576 202.336 293.576 202.181C293.576 202.026 293.643 201.915 293.667 201.926Z" fill="#263238"/>
<path d="M293.906 200.991C293.932 201 293.919 201.1 293.877 201.213C293.836 201.326 293.781 201.41 293.756 201.4C293.73 201.391 293.743 201.292 293.785 201.179C293.826 201.066 293.881 200.982 293.906 200.991Z" fill="#263238"/>
<path d="M294.55 200.321C294.556 200.349 294.457 200.393 294.365 200.481C294.272 200.567 294.221 200.663 294.194 200.655C294.168 200.65 294.182 200.516 294.298 200.408C294.413 200.3 294.547 200.294 294.55 200.321Z" fill="#263238"/>
<path d="M295.043 199.919C295.062 199.938 295.036 199.996 294.986 200.048C294.935 200.1 294.878 200.127 294.859 200.107C294.839 200.088 294.865 200.031 294.915 199.979C294.966 199.927 295.023 199.9 295.043 199.919Z" fill="#263238"/>
<path d="M285.863 104.661L284.498 87.9547L291.511 88.0801C291.511 88.0801 291.836 85.617 290.802 80.2135C290.169 76.9001 287.968 74.868 285.501 73.6606L285.501 73.6161L285.287 73.56C282.149 72.0867 278.863 71.8789 278.863 71.8789L270.255 71.9786C270.255 71.9786 263.678 71.1558 260.038 75.8574C258.636 77.6685 254.297 90.0635 254.297 90.0635L264.63 95.0538L263.647 88.1803C263.647 88.1803 263.842 93.164 264.476 94.743C264.83 95.6229 265.853 98.3541 265.853 98.3541L265.719 106.598L285.863 104.661Z" fill="#0098DE"/>
<path d="M281.114 85.5294L279.836 90.9891H291.891L291.098 81.8359L281.114 85.5294Z" fill="#0098DE"/>
<path d="M291.891 90.9895C291.893 90.9534 291.283 90.8893 290.295 90.8313C289.307 90.7733 287.94 90.7241 286.429 90.7311C284.918 90.7386 283.551 90.8041 282.564 90.8828C281.577 90.9609 280.97 91.0447 280.973 91.0798C280.975 91.1182 281.587 91.1009 282.574 91.0709C283.561 91.0405 284.924 91.0049 286.431 90.9974C287.937 90.9909 289.301 91.0096 290.289 91.0194C291.277 91.0297 291.889 91.0269 291.891 90.9895Z" fill="#263238"/>
<path d="M280.594 81.791C280.557 81.7924 280.545 82.3231 280.554 83.1796C280.563 84.0365 280.594 85.2186 280.645 86.5244C280.695 87.8301 280.756 89.0118 280.813 89.8668C280.87 90.7214 280.924 91.2493 280.96 91.2479C280.997 91.2465 281.01 90.7158 281.001 89.8593C280.992 89.0029 280.96 87.8198 280.91 86.5141C280.86 85.2084 280.799 84.0271 280.742 83.1721C280.685 82.318 280.631 81.7896 280.594 81.791Z" fill="#263238"/>
<g opacity="0.3">
<path d="M269.625 86.5195C269.625 86.5195 272.305 106.441 279.836 105.914C279.836 105.914 283.227 105.874 284.318 103.613V102.724L269.625 86.5195Z" fill="black"/>
</g>
<g opacity="0.3">
<path d="M280.594 82.9658L279.153 92.732L280.086 94.4459L281.623 91.095L280.972 91.0795L280.594 82.9658Z" fill="black"/>
</g>
<path d="M265.853 98.3553C265.838 98.3609 265.766 98.1943 265.65 97.8887C265.533 97.5836 265.378 97.1371 265.197 96.5811C264.838 95.4696 264.393 93.9131 264.045 92.1609C263.698 90.4073 263.529 88.7945 263.474 87.6255C263.446 87.0409 263.437 86.5673 263.446 86.2402C263.452 85.9131 263.463 85.7324 263.48 85.7324C263.519 85.732 263.545 86.4536 263.645 87.6138C263.744 88.774 263.939 90.3712 264.283 92.1136C264.629 93.855 265.045 95.4102 265.362 96.5315C265.51 97.0515 265.636 97.4947 265.74 97.8597C265.828 98.1733 265.869 98.3497 265.853 98.3553Z" fill="#263238"/>
<path d="M268.899 104.08C268.835 104.1 268.648 103.669 268.483 103.12C268.317 102.57 268.234 102.109 268.299 102.09C268.363 102.07 268.549 102.5 268.715 103.049C268.881 103.599 268.963 104.06 268.899 104.08Z" fill="#263238"/>
<path d="M269.94 104.004C269.878 104.019 269.675 103.375 269.665 102.547C269.651 101.72 269.835 101.069 269.897 101.083C269.966 101.096 269.893 101.745 269.907 102.543C269.917 103.342 270.009 103.989 269.94 104.004Z" fill="#263238"/>
<path d="M264.841 95.2831C264.811 95.3434 262.406 94.1992 259.47 92.7278C256.534 91.2559 254.178 90.0148 254.208 89.9544C254.238 89.8941 256.642 91.0383 259.579 92.5097C262.515 93.9811 264.871 95.2227 264.841 95.2831Z" fill="#263238"/>
<path d="M269.078 73.5937C269.132 71.2261 269.145 68.7326 269.145 68.7326C269.145 68.7326 266.117 68.1476 265.589 64.1518C265.086 60.3413 266.494 51.4002 266.494 51.4002C270.917 49.7234 275.513 51.2434 278.544 54.8377L277.792 74.0603C277.704 76.2917 275.722 77.9938 273.34 77.882C270.934 77.7687 269.027 75.8495 269.078 73.5937Z" fill="#B78876"/>
<path d="M266.264 58.5463C266.247 58.8154 266.461 59.0513 266.741 59.0738C267.021 59.0962 267.261 58.8964 267.277 58.6273C267.294 58.3582 267.08 58.1218 266.8 58.0994C266.52 58.0769 266.28 58.2772 266.264 58.5463Z" fill="#263238"/>
<path d="M266.074 57.8756C266.136 57.9439 266.529 57.6678 267.076 57.6833C267.624 57.6908 268.018 57.9837 268.079 57.9182C268.109 57.8892 268.048 57.7675 267.876 57.6351C267.707 57.5036 267.416 57.372 267.075 57.3646C266.734 57.3575 266.444 57.4759 266.276 57.6009C266.104 57.7263 266.044 57.8452 266.074 57.8756Z" fill="#263238"/>
<path d="M271.82 58.8926C271.803 59.1617 272.017 59.398 272.297 59.4205C272.577 59.443 272.817 59.2431 272.833 58.974C272.85 58.7049 272.636 58.4686 272.356 58.4461C272.076 58.4232 271.836 58.6235 271.82 58.8926Z" fill="#263238"/>
<path d="M271.782 58.2223C271.844 58.2906 272.237 58.0145 272.784 58.0299C273.331 58.0379 273.726 58.3309 273.787 58.2649C273.817 58.2359 273.756 58.1142 273.584 57.9817C273.415 57.8502 273.125 57.7187 272.783 57.7112C272.442 57.7042 272.152 57.8226 271.984 57.9476C271.813 58.073 271.753 58.1919 271.782 58.2223Z" fill="#263238"/>
<path d="M269.69 62.2433C269.694 62.2119 269.355 62.1445 268.805 62.0594C268.666 62.0411 268.534 62.0102 268.513 61.9138C268.483 61.8118 268.545 61.662 268.617 61.5006C268.757 61.1645 268.904 60.8126 269.058 60.4433C269.671 58.9378 270.119 57.6985 270.059 57.6742C269.998 57.6499 269.451 58.8503 268.838 60.3558C268.69 60.727 268.549 61.0812 268.415 61.4196C268.358 61.5778 268.262 61.7561 268.328 61.9681C268.363 62.0739 268.464 62.1525 268.552 62.1792C268.641 62.2091 268.72 62.2124 268.789 62.2185C269.343 62.2634 269.688 62.2746 269.69 62.2433Z" fill="#263238"/>
<path d="M269.145 68.7324C269.145 68.7324 271.81 68.9739 274.495 67.4482C274.495 67.4482 273.136 70.1486 269.174 69.6731L269.145 68.7324Z" fill="#A36957"/>
<path d="M273.535 56.6383C273.423 56.8101 273.007 56.7338 272.54 56.6496C272.075 56.5555 271.66 56.4727 271.618 56.2714C271.572 56.0786 272.054 55.8114 272.677 55.9312C273.299 56.0501 273.649 56.4759 273.535 56.6383Z" fill="#263238"/>
<path d="M268.091 55.8323C268.048 56.0326 267.603 56.1056 267.088 56.1318C266.574 56.1529 266.123 56.121 266.063 55.9259C266.001 55.7368 266.436 55.4289 267.055 55.4017C267.673 55.3718 268.135 55.6381 268.091 55.8323Z" fill="#263238"/>
<path d="M269.699 63.5584C269.584 63.5261 269.454 63.5921 269.396 63.6974C269.327 63.8224 269.359 63.9946 269.468 64.0868C269.577 64.179 269.752 64.1813 269.863 64.0919C269.975 64.003 270.011 63.8317 269.946 63.7049C269.88 63.5781 269.72 63.5088 269.583 63.5481" fill="#A36957"/>
<path d="M269.828 63.6125C269.852 63.5905 269.74 63.4557 269.501 63.5081C269.39 63.5324 269.246 63.6321 269.202 63.8025C269.158 63.9625 269.198 64.1699 269.367 64.3C269.542 64.4235 269.752 64.3982 269.892 64.3032C270.041 64.205 270.083 64.0252 270.06 63.9129C270.011 63.6663 269.829 63.627 269.824 63.6611C269.804 63.692 269.888 63.7777 269.871 63.9237C269.864 63.9953 269.829 64.0617 269.76 64.0954C269.693 64.1324 269.585 64.1324 269.524 64.0852C269.46 64.0393 269.427 63.9373 269.44 63.8586C269.45 63.78 269.502 63.7215 269.565 63.6855C269.695 63.6115 269.81 63.6462 269.828 63.6125Z" fill="#263238"/>
<path d="M276.71 59.5327C276.238 60.6297 275.086 61.4749 275.246 62.659C275.349 63.4232 275.838 64.136 275.743 64.9016C275.623 65.8629 274.627 66.5293 274.486 67.4878C274.314 68.6634 275.454 69.5769 275.909 70.6739C276.572 72.2712 275.724 74.0679 275.704 75.798C275.674 78.4483 277.921 80.9241 280.554 81.1417C281.62 81.2297 282.82 80.9072 283.372 79.9895C283.828 79.2322 283.737 78.27 284.01 77.429C284.417 76.1767 285.607 75.2599 285.859 73.9668C286.316 71.6095 283.475 69.6588 283.662 67.2645C283.742 66.2415 284.372 65.349 284.639 64.3587C284.99 63.0614 284.669 61.6003 283.806 60.5717C283.105 59.7354 282.087 59.1855 281.491 58.2719C280.813 57.2358 280.79 55.9221 280.535 54.71C279.913 51.7564 277.701 49.1908 274.876 48.1463C272.052 47.1017 268.709 47.6128 266.323 49.4534C266.323 49.4534 265.644 52.538 268.802 53.0537C271.959 53.5695 273.422 52.9742 273.778 54.2434C273.778 54.2434 273.419 55.7255 274.724 57.1417C276.03 58.5588 277.256 58.2626 276.71 59.5327Z" fill="#263238"/>
<path d="M281.748 80.9263C281.747 80.9347 281.648 80.9239 281.46 80.8963C281.273 80.8668 280.997 80.8046 280.657 80.6792C279.983 80.432 279.028 79.8939 278.214 78.8657C277.81 78.356 277.431 77.7382 277.176 77.0119C276.914 76.2898 276.765 75.4712 276.752 74.6092C276.731 73.7467 276.853 72.842 277.088 71.9369C277.205 71.4839 277.358 71.0318 277.535 70.583C277.709 70.1323 277.924 69.698 278.047 69.2384C278.18 68.7803 278.162 68.3123 278.042 67.8658C277.921 67.4193 277.713 66.9995 277.512 66.5844C277.309 66.1697 277.102 65.756 276.968 65.3161C276.832 64.8799 276.781 64.4096 276.87 63.9711C277.056 63.0894 277.59 62.437 277.905 61.7673C278.238 61.1041 278.343 60.4031 278.327 59.7741C278.271 58.4992 277.729 57.5567 277.287 57.0133C276.826 56.4695 276.476 56.2622 276.494 56.2393C276.494 56.2393 276.864 56.4148 277.359 56.9516C277.833 57.4879 278.418 58.4435 278.499 59.7666C278.527 60.4185 278.427 61.157 278.087 61.8557C277.765 62.5498 277.249 63.2068 277.09 64.0137C276.927 64.8266 277.31 65.6638 277.726 66.4786C277.929 66.8942 278.145 67.3238 278.277 67.8017C278.407 68.2762 278.426 68.8125 278.283 69.3011C278.15 69.7921 277.931 70.232 277.76 70.6719C277.586 71.1118 277.436 71.5541 277.319 71.9973C277.087 72.8827 276.963 73.7649 276.977 74.605C276.983 76.2921 277.56 77.7668 278.351 78.758C279.126 79.7726 280.042 80.3202 280.693 80.5902C281.352 80.8584 281.754 80.8986 281.748 80.9263Z" fill="#455A64"/>
<path d="M281.283 57.3104C281.285 57.3258 281.039 57.3703 280.588 57.4143C280.139 57.4512 279.476 57.5037 278.666 57.3637C277.875 57.2186 276.874 56.8293 276.241 55.8881C275.929 55.4159 275.806 54.8445 275.604 54.3171C275.413 53.7835 275.045 53.3216 274.54 53.0015C273.519 52.3524 272.318 52.2728 271.268 52.1446C270.212 52.0253 269.22 51.8006 268.548 51.2952C267.87 50.8117 267.523 50.1846 267.434 49.7325C267.383 49.506 267.387 49.3244 267.398 49.2046C267.414 49.0843 267.428 49.023 267.436 49.0244C267.466 49.0249 267.404 49.2818 267.526 49.7091C267.639 50.1322 267.989 50.7106 268.646 51.1538C269.293 51.6139 270.242 51.8147 271.294 51.9218C272.335 52.0398 273.579 52.1048 274.673 52.797C275.212 53.1349 275.63 53.6647 275.826 54.2314C276.033 54.7883 276.15 55.3364 276.429 55.7669C276.997 56.6379 277.939 57.0361 278.698 57.1952C279.478 57.353 280.134 57.3286 280.582 57.3207C281.032 57.3048 281.281 57.2926 281.283 57.3104Z" fill="#455A64"/>
<path d="M280.125 53.499C280.127 53.5107 279.937 53.5706 279.578 53.5795C279.223 53.5893 278.691 53.5261 278.105 53.2467C277.813 53.1077 277.514 52.9084 277.238 52.6421C276.958 52.3772 276.729 52.0346 276.514 51.6733C276.093 50.9615 275.688 50.0835 274.815 49.7208C273.96 49.353 273.019 49.4349 272.201 49.4906C271.375 49.572 270.6 49.5963 269.969 49.4718C269.333 49.3609 268.856 49.097 268.592 48.8527C268.458 48.7319 268.367 48.6238 268.317 48.5438C268.265 48.4652 268.241 48.4221 268.248 48.417C268.268 48.402 268.379 48.5672 268.652 48.7792C268.924 48.9903 269.383 49.2163 269.997 49.3019C270.612 49.4002 271.352 49.3614 272.181 49.2668C273.004 49.2018 273.973 49.0979 274.913 49.498C275.379 49.696 275.758 50.0465 276.028 50.4261C276.303 50.8056 276.5 51.202 276.707 51.56C276.913 51.9185 277.124 52.2457 277.38 52.4984C277.632 52.7544 277.909 52.9509 278.182 53.0927C278.729 53.3778 279.236 53.4657 279.58 53.4845C279.928 53.5051 280.122 53.4779 280.125 53.499Z" fill="#455A64"/>
<path d="M283.141 79.9156C283.117 79.9049 283.265 79.6035 283.437 79.0274C283.608 78.4531 283.778 77.5901 283.749 76.5189C283.712 75.4551 283.457 74.1681 282.753 72.9452C282.412 72.3322 281.893 71.7865 281.471 71.113C281.261 70.777 281.08 70.4003 281.001 69.9833C280.923 69.5658 280.971 69.1226 281.104 68.7201C281.366 67.9124 281.834 67.2319 281.935 66.4892C282.06 65.7441 281.685 65.0646 281.33 64.4599C281.15 64.152 280.97 63.8478 280.83 63.5295C280.691 63.2113 280.602 62.8762 280.567 62.5524C280.496 61.9018 280.571 61.3042 280.619 60.7679C280.754 59.699 280.655 58.8205 280.398 58.2809C280.149 57.7348 279.823 57.571 279.847 57.5485C279.849 57.5452 279.868 57.5541 279.903 57.5757C279.938 57.5981 279.993 57.6276 280.052 57.6824C280.177 57.7839 280.343 57.9641 280.483 58.2397C280.778 58.7859 280.905 59.7046 280.79 60.7829C280.752 61.3215 280.689 61.9117 280.766 62.528C280.828 63.15 281.148 63.7369 281.522 64.3457C281.704 64.6537 281.896 64.9752 282.03 65.3402C282.168 65.702 282.231 66.1157 282.17 66.5219C282.057 67.3405 281.576 68.0331 281.335 68.7941C281.21 69.1741 281.169 69.5644 281.238 69.9397C281.309 70.3151 281.473 70.6647 281.673 70.9876C282.073 71.6344 282.594 72.1913 282.947 72.8334C283.663 74.104 283.904 75.428 283.92 76.5151C283.928 77.6098 283.728 78.4836 283.527 79.0564C283.422 79.3423 283.334 79.5614 283.258 79.7027C283.189 79.8459 283.148 79.9194 283.141 79.9156Z" fill="#455A64"/>
<path d="M264.131 167.117C264.131 167.117 260.988 137.239 260.808 126.198C260.627 115.158 265.757 104.265 265.757 104.265L285.863 103.412C285.863 103.412 289.837 114.614 289.908 119.319C290.046 128.464 287.485 137.493 287.78 144.747L288.452 167.117" fill="#263238"/>
<path d="M289.126 130.385C289.13 130.393 289.016 130.479 288.798 130.635C288.742 130.675 288.68 130.718 288.614 130.764C288.551 130.818 288.49 130.885 288.42 130.953C288.279 131.089 288.114 131.243 287.972 131.456C287.322 132.254 286.849 133.678 286.398 135.455C286.151 136.338 285.899 137.328 285.381 138.298C285.242 138.534 285.117 138.785 284.934 139.005C284.847 139.118 284.767 139.238 284.671 139.346L284.362 139.656C283.942 140.071 283.41 140.383 282.85 140.629C281.724 141.124 280.454 141.359 279.293 141.943C278.125 142.513 277.249 143.619 276.713 144.892C276.147 146.16 275.803 147.492 275.331 148.735C274.867 149.968 274.235 151.169 273.232 151.927C272.237 152.713 271.007 152.892 269.942 152.961C268.86 153.024 267.857 152.993 266.959 153.13C266.063 153.254 265.269 153.539 264.708 153.981C264.145 154.426 263.816 154.982 263.662 155.458C263.502 155.94 263.531 156.347 263.584 156.605C263.636 156.868 263.71 156.994 263.693 157.001C263.693 157.001 263.606 156.883 263.536 156.617C263.466 156.356 263.42 155.934 263.571 155.43C263.718 154.932 264.045 154.349 264.623 153.875C265.203 153.401 266.019 153.098 266.933 152.959C267.848 152.81 268.862 152.831 269.929 152.759C270.984 152.683 272.161 152.497 273.097 151.749C274.044 151.026 274.653 149.871 275.109 148.65C275.573 147.422 275.914 146.089 276.492 144.793C277.033 143.497 277.962 142.321 279.186 141.73C280.393 141.129 281.664 140.902 282.761 140.423C283.308 140.186 283.815 139.891 284.217 139.5L284.514 139.206C284.606 139.104 284.683 138.988 284.768 138.881C284.945 138.672 285.067 138.429 285.204 138.202C285.715 137.266 285.976 136.287 286.233 135.409C286.703 133.642 287.21 132.194 287.897 131.398C288.049 131.186 288.222 131.033 288.371 130.9C288.445 130.834 288.511 130.768 288.577 130.717C288.646 130.673 288.71 130.632 288.77 130.594C289 130.449 289.122 130.378 289.126 130.385Z" fill="#FAFAFA"/>
<path d="M289.25 116.559C289.258 116.558 289.267 116.695 289.276 116.959C289.28 117.222 289.248 117.612 289.136 118.102C288.903 119.076 288.193 120.414 286.865 121.624C286.209 122.232 285.416 122.82 284.51 123.349C283.61 123.885 282.616 124.395 281.597 124.972C280.583 125.551 279.537 126.205 278.617 127.074C277.686 127.932 276.988 129.06 276.36 130.255C275.725 131.448 275.164 132.662 274.402 133.713C274.025 134.238 273.598 134.717 273.127 135.128C272.652 135.536 272.134 135.866 271.609 136.142C270.554 136.691 269.48 137.03 268.485 137.342C267.487 137.652 266.557 137.926 265.743 138.268C264.928 138.605 264.223 138.986 263.652 139.391C263.081 139.796 262.647 140.221 262.339 140.605C261.717 141.377 261.587 141.936 261.551 141.918C261.543 141.915 261.588 141.785 261.681 141.538C261.789 141.299 261.956 140.943 262.264 140.546C262.566 140.146 262.999 139.703 263.572 139.28C264.145 138.858 264.855 138.461 265.676 138.109C266.496 137.752 267.431 137.467 268.423 137.15C269.414 136.83 270.476 136.485 271.504 135.943C272.016 135.672 272.517 135.347 272.974 134.952C273.429 134.553 273.841 134.088 274.208 133.574C274.949 132.545 275.506 131.341 276.144 130.14C276.774 128.94 277.493 127.78 278.453 126.9C279.398 126.012 280.463 125.353 281.486 124.777C282.514 124.202 283.508 123.699 284.407 123.175C285.308 122.658 286.093 122.088 286.748 121.497C288.07 120.321 288.786 119.027 289.044 118.078C289.296 117.12 289.213 116.556 289.25 116.559Z" fill="#FAFAFA"/>
<path d="M260.91 127.78C260.906 127.782 260.892 127.751 260.869 127.689C260.849 127.627 260.806 127.537 260.778 127.411C260.722 127.161 260.686 126.766 260.825 126.289C261.085 125.336 262.117 124.15 263.781 123.556C264.608 123.271 265.547 123.099 266.525 122.842C267.492 122.581 268.546 122.215 269.333 121.404C269.724 121.004 270.054 120.528 270.329 120.004C270.596 119.475 270.817 118.908 271.026 118.323C271.444 117.156 271.795 115.887 272.505 114.734C273.211 113.572 274.36 112.765 275.549 112.36C276.736 111.923 277.932 111.73 279.042 111.473C280.156 111.23 281.197 110.915 282.08 110.436C282.951 109.939 283.644 109.279 284.136 108.579C285.142 107.175 285.406 105.738 285.442 104.788C285.464 103.822 285.311 103.297 285.342 103.292C285.342 103.292 285.529 103.809 285.536 104.79C285.529 105.754 285.289 107.226 284.276 108.679C283.78 109.403 283.075 110.091 282.178 110.612C281.273 111.114 280.211 111.441 279.093 111.692C277.977 111.956 276.788 112.155 275.633 112.584C274.471 112.985 273.392 113.749 272.712 114.864C272.026 115.974 271.674 117.229 271.25 118.403C271.039 118.993 270.813 119.57 270.535 120.112C270.25 120.651 269.903 121.147 269.491 121.564C268.655 122.414 267.555 122.783 266.577 123.038C265.585 123.29 264.651 123.451 263.835 123.72C262.217 124.274 261.19 125.41 260.916 126.317C260.769 126.772 260.787 127.153 260.827 127.401C260.879 127.648 260.92 127.776 260.91 127.78Z" fill="#FAFAFA"/>
<path d="M287.521 153.044C287.529 153.043 287.54 153.144 287.553 153.338C287.564 153.531 287.549 153.821 287.467 154.183C287.302 154.903 286.747 155.89 285.703 156.711C285.189 157.127 284.567 157.508 283.853 157.813C283.14 158.119 282.352 158.362 281.53 158.619C280.707 158.877 279.845 159.146 279.006 159.544C278.161 159.932 277.381 160.499 276.709 161.224C276.028 161.939 275.441 162.72 274.789 163.41C274.141 164.104 273.403 164.675 272.638 165.097C271.103 165.948 269.51 166.24 268.2 166.255C266.88 166.269 265.833 165.991 265.146 165.745C264.799 165.624 264.541 165.503 264.37 165.412C264.198 165.326 264.11 165.277 264.113 165.27C264.117 165.262 264.213 165.296 264.39 165.367C264.566 165.443 264.828 165.549 265.175 165.656C265.864 165.871 266.901 166.118 268.197 166.082C269.482 166.045 271.037 165.741 272.528 164.901C273.272 164.482 273.981 163.927 274.615 163.245C275.253 162.566 275.838 161.785 276.532 161.055C277.216 160.316 278.038 159.719 278.903 159.327C279.764 158.923 280.638 158.656 281.463 158.404C282.288 158.153 283.072 157.919 283.774 157.627C284.475 157.337 285.088 156.973 285.596 156.576C286.629 155.791 287.186 154.852 287.375 154.159C287.56 153.457 287.487 153.043 287.521 153.044Z" fill="#FAFAFA"/>
<path d="M285.229 91.0088L281.341 91.101C281.086 92.4142 280.462 93.3127 280.462 93.3127C277.211 87.6537 274.691 80.0721 274.065 77.0249C274.156 76.7207 274.264 76.3838 274.399 76.0075C274.554 75.5732 274.421 74.7505 274.348 74.2942C274.239 73.6156 274.05 72.703 273.993 72.2804C273.819 70.9929 273.613 70.7907 273.165 70.9363C272.556 71.1342 273.414 74.552 272.915 74.6264C272.647 74.6662 272.319 73.4953 272.223 72.5345C272.128 71.5737 271.695 68.6183 271.378 68.4212C270.914 68.1325 270.509 68.5892 270.627 69.5458C270.745 70.5141 270.895 73.4022 270.389 73.441C269.89 73.4794 269.471 68.5799 269.471 68.5799C269.471 68.5799 269.55 67.5138 268.964 67.5395C267.906 67.5854 268.733 72.7512 268.823 73.2407C268.887 73.5809 268.337 73.6436 268.289 73.2739C268.239 72.8934 267.984 68.374 266.908 68.41C266.081 68.4381 267.548 72.6669 267.084 73.6474C266.62 74.6274 266.297 70.318 265.509 70.3775C265.215 70.3999 264.998 70.4575 265.538 72.8962C265.827 74.2071 266.68 76.6169 267.424 78.6124C268.674 85.375 274.161 107.009 282.763 103.049C287.577 100.833 289.529 91.0116 289.529 91.0116L285.229 91.0088Z" fill="#B78876"/>
<path d="M268.64 73.5711C268.64 73.5711 268.679 73.5781 268.752 73.5557C268.818 73.5355 268.948 73.4532 268.927 73.2852C268.916 72.995 268.871 72.5715 268.804 72.0244C268.754 71.4735 268.59 70.8127 268.589 70.0307C268.583 69.639 268.593 69.2178 268.615 68.7713C268.63 68.5481 268.633 68.3164 268.683 68.0974C268.719 67.8854 268.861 67.643 269.024 67.672L269.042 67.6752L269.05 67.6748C269.216 67.6673 269.346 67.7969 269.399 67.9954C269.457 68.1849 269.472 68.4086 269.46 68.622L269.459 68.6309L269.46 68.637C269.569 69.8341 269.687 71.145 269.959 72.5443C269.997 72.7193 270.035 72.8953 270.089 73.0727C270.116 73.1611 270.148 73.2505 270.186 73.3409C270.212 73.3872 270.228 73.4312 270.266 73.4794C270.299 73.5201 270.341 73.5912 270.461 73.602C270.655 73.5875 270.711 73.4405 270.754 73.3563C270.796 73.2594 270.823 73.1635 270.842 73.0685C270.882 72.878 270.902 72.688 270.917 72.497C270.968 71.7337 270.942 70.955 270.886 70.1561C270.867 69.7522 270.768 69.3497 270.837 68.9838C270.869 68.8036 270.944 68.622 271.067 68.5471C271.126 68.5106 271.194 68.5031 271.267 68.5219C271.304 68.5326 271.341 68.5476 271.378 68.5701C271.409 68.5995 271.402 68.5864 271.43 68.6389C271.586 68.9739 271.666 69.4101 271.754 69.8154C271.836 70.2296 271.908 70.6517 271.974 71.0785C272.04 71.5054 272.1 71.9373 272.151 72.3726C272.192 72.8073 272.255 73.2641 272.366 73.7036C272.422 73.9249 272.484 74.1458 272.576 74.3648C272.624 74.4748 272.673 74.5834 272.769 74.6957C272.803 74.7434 272.912 74.8328 273.048 74.7977C273.18 74.7537 273.217 74.6489 273.238 74.5876C273.314 74.3185 273.292 74.0948 273.288 73.8594C273.278 73.6273 273.259 73.3975 273.239 73.1682C273.206 72.7741 273.168 72.3843 273.155 72C273.149 71.8086 273.149 71.6172 273.169 71.437C273.181 71.349 273.196 71.2583 273.226 71.1932C273.24 71.16 273.258 71.1356 273.271 71.1235C273.279 71.116 273.283 71.1193 273.289 71.1118L273.35 71.0945C273.659 70.9662 273.763 71.3982 273.845 71.7464C273.917 72.1095 273.962 72.4844 274.035 72.8537C274.157 73.5908 274.315 74.3232 274.396 75.0275C274.43 75.3762 274.455 75.7389 274.355 76.0347C274.245 76.373 274.135 76.7076 274.028 77.0385L274.018 77.0685L274.025 77.0998C274.594 79.6163 275.381 81.8678 276.113 83.8666C276.851 85.8636 277.59 87.5896 278.242 89.0006C278.892 90.4135 279.475 91.5016 279.878 92.2443C280.083 92.5962 280.244 92.8742 280.364 93.0811C280.476 93.2697 280.538 93.3656 280.544 93.3624C280.55 93.3586 280.501 93.2557 280.401 93.0605C280.29 92.8494 280.14 92.5649 279.951 92.2055C279.572 91.452 279.012 90.3555 278.383 88.937C277.752 87.5198 277.033 85.7911 276.311 83.7936C275.597 81.7971 274.823 79.5395 274.27 77.0493L274.267 77.1106C274.375 76.7839 274.484 76.454 274.594 76.1203C274.72 75.7384 274.683 75.3654 274.652 75.0004C274.568 74.2684 274.415 73.5571 274.294 72.8167C274.222 72.4507 274.177 72.0749 274.102 71.6911C274.058 71.4997 274.017 71.3069 273.912 71.1118C273.861 71.0172 273.783 70.9096 273.654 70.8516C273.524 70.7949 273.391 70.8108 273.286 70.8366L273.208 70.859C273.173 70.875 273.129 70.8937 273.102 70.9194C273.042 70.9714 273.008 71.0308 272.984 71.086C272.935 71.1983 272.921 71.3018 272.906 71.4057C272.883 71.6111 272.884 71.811 272.89 72.0094C272.903 72.4063 272.942 72.7989 272.975 73.1916C272.994 73.4199 273.013 73.6474 273.023 73.8716C273.031 74.0901 273.039 74.3316 272.988 74.5006C272.977 74.5497 272.954 74.5403 272.98 74.5642L272.981 74.5665C272.979 74.5506 272.985 74.5904 272.984 74.5839L272.983 74.5792C272.982 74.5731 272.983 74.5675 272.985 74.5628C272.987 74.5586 272.997 74.5422 272.991 74.5413C272.988 74.5399 272.977 74.5338 272.963 74.5155C272.912 74.4561 272.86 74.3587 272.82 74.2619C272.737 74.0658 272.676 73.8528 272.622 73.6408C272.515 73.2117 272.455 72.7858 272.412 72.3435C272.36 71.9032 272.299 71.4693 272.231 71.0397C272.164 70.6101 272.091 70.1851 272.006 69.7658C271.91 69.3437 271.848 68.9379 271.651 68.5162C271.639 68.4737 271.556 68.3791 271.505 68.3515C271.452 68.3201 271.394 68.2958 271.331 68.278C271.206 68.2434 271.052 68.2593 270.936 68.3328C270.705 68.4863 270.634 68.7301 270.592 68.9416C270.554 69.1597 270.559 69.375 270.584 69.5828C270.607 69.7826 270.626 69.9783 270.642 70.1762C270.701 70.9643 270.73 71.7398 270.684 72.4811C270.671 72.666 270.652 72.849 270.617 73.0217C270.6 73.1083 270.576 73.192 270.546 73.2641C270.531 73.2997 270.512 73.3329 270.495 73.3516C270.478 73.3905 270.463 73.3427 270.465 73.4059C270.488 73.3577 270.466 73.3844 270.447 73.3441C270.427 73.3221 270.41 73.28 270.392 73.2472C270.359 73.171 270.33 73.0905 270.304 73.0072C270.252 72.841 270.212 72.6688 270.175 72.4989C269.898 71.1244 269.767 69.8103 269.647 68.6215V68.6365C269.658 68.396 269.642 68.1662 269.571 67.9406C269.536 67.8297 269.484 67.7164 269.389 67.6289C269.296 67.5386 269.163 67.4983 269.043 67.5021L269.069 67.5049C268.881 67.4717 268.744 67.5854 268.667 67.6982C268.586 67.8142 268.551 67.9401 268.523 68.0618C268.472 68.3075 268.473 68.541 268.461 68.7652C268.444 69.2154 268.441 69.639 268.454 70.0349C268.469 70.8333 268.648 71.4941 268.711 72.0384C268.793 72.5822 268.853 73.0044 268.879 73.2889C268.909 73.4242 268.8 73.5112 268.743 73.5341C268.677 73.5613 268.639 73.5655 268.64 73.5711Z" fill="#A36957"/>
<path d="M238.248 97.4521C238.248 97.4521 236.957 97.3903 235.545 97.7628C233.135 98.3988 228.975 100.927 228.802 104.051H231.824C231.824 104.051 230.132 107.663 230.629 107.329C231.919 106.461 234.488 103.844 234.488 103.844L238.248 97.4521Z" fill="#B78876"/>
<path d="M279.467 43.0761C279.4 43.0822 279.126 40.5765 278.854 37.4807C278.583 34.3835 278.417 31.8689 278.484 31.8633C278.551 31.8572 278.825 34.3624 279.097 37.4596C279.368 40.555 279.534 43.07 279.467 43.0761Z" fill="#263238"/>
<path d="M292.724 32.016C292.779 32.0549 290.737 35.0267 288.165 38.6523C285.592 42.2793 283.462 45.1869 283.407 45.1481C283.352 45.1092 285.393 42.1379 287.966 38.5109C290.539 34.8853 292.669 31.9772 292.724 32.016Z" fill="#263238"/>
<path d="M298.232 45.483C298.245 45.549 295.862 46.0956 292.911 46.704C289.958 47.3124 287.554 47.7524 287.54 47.6864C287.527 47.6204 289.909 47.0738 292.862 46.4654C295.814 45.8574 298.218 45.4175 298.232 45.483Z" fill="#263238"/>
<path d="M139.514 109.766L123.012 194.848L120.852 205.986L231.014 205.441C235.958 205.416 240.34 201.014 241.931 194.473L261.465 114.147C262.672 109.182 260.023 104.017 256.27 104.021L144.772 104.139C142.31 104.142 140.158 106.446 139.514 109.766Z" fill="#0098DE"/>
<g opacity="0.5">
<path d="M139.514 109.766L123.012 194.848L120.852 205.986L231.014 205.441C235.958 205.416 240.34 201.014 241.931 194.473L261.465 114.147C262.672 109.182 260.023 104.017 256.27 104.021L144.772 104.139C142.31 104.142 140.158 106.446 139.514 109.766Z" fill="black"/>
</g>
<path d="M220.447 189.084L208.783 94.825C208.306 90.9626 205.238 88.0816 201.615 88.0938L176.039 88.1776C174.146 88.1836 172.332 88.9909 170.987 90.4244L158.842 103.372L87.7095 103.744C83.3625 103.767 80.0231 107.891 80.5994 112.526L91.4289 199.645C91.9081 203.502 94.9704 206.379 98.5875 206.372L222.556 206.126C236.363 206.413 237.681 202.324 237.681 202.324C221.858 205.841 220.449 189.095 220.447 189.084Z" fill="#0098DE"/>
<g opacity="0.5">
<path d="M166.993 170.219L162.812 174.722L130.611 145.671L134.792 141.168L166.993 170.219Z" fill="white"/>
<path d="M161.06 140.17L165.681 144.338L136.544 175.721L131.923 171.552L161.06 140.17Z" fill="white"/>
</g>
<path d="M238.149 48.5713C237.851 48.443 237.637 48.1524 237.622 47.8056L237.435 43.4607C237.423 43.1874 237.54 42.9244 237.75 42.7503C237.96 42.5757 238.239 42.5107 238.505 42.5734C239.201 42.7381 239.969 42.586 240.612 42.1559C241.204 41.76 241.601 41.1769 241.701 40.5558C241.802 39.9371 241.611 39.2524 241.178 38.6768C240.713 38.0605 240.027 37.6453 239.338 37.5662C237.933 37.4038 236.416 38.4835 236.026 39.924C235.9 40.3892 235.421 40.6644 234.957 40.5376C234.486 40.4075 234.219 39.9311 234.345 39.4659C234.958 37.2017 237.288 35.5712 239.538 35.8309C240.705 35.9657 241.81 36.619 242.566 37.6233C243.286 38.5781 243.597 39.749 243.42 40.8366C243.242 41.9341 242.571 42.944 241.578 43.6081C240.862 44.0878 240.039 44.3527 239.217 44.3813L239.362 47.7303C239.382 48.2123 239.009 48.6195 238.529 48.6401C238.394 48.6461 238.266 48.6209 238.149 48.5713Z" fill="#0098DE"/>
<path d="M239.426 50.3455C239.453 50.7391 239.156 51.0803 238.764 51.1069C238.371 51.1341 238.031 50.8369 238.004 50.4433C237.977 50.0497 238.273 49.7085 238.666 49.6814C239.058 49.6543 239.399 49.9519 239.426 50.3455Z" fill="#0098DE"/>
<path d="M223.153 42.4446C223.159 42.4446 223.174 42.3482 223.195 42.1596C223.217 41.9561 223.248 41.679 223.287 41.3228C223.308 40.9527 223.402 40.5052 223.513 39.9778C223.574 39.7157 223.606 39.4242 223.702 39.1293C223.793 38.8326 223.889 38.5177 223.991 38.1844C224.443 36.8703 225.14 35.2941 226.312 33.7263C227.476 32.1617 229.112 30.6159 231.213 29.445C232.247 28.8263 233.43 28.3953 234.671 28.0148C235.93 27.7157 237.265 27.4593 238.66 27.4925C239.358 27.4551 240.061 27.5576 240.778 27.6179C241.136 27.6521 241.488 27.748 241.848 27.8108C242.208 27.8772 242.57 27.9479 242.922 28.0705C244.363 28.4411 245.762 29.1226 247.096 29.9673C249.773 31.6563 252.028 34.4044 253.264 37.7356C253.884 39.4022 254.181 41.2292 254.179 43.0746C254.216 44.9236 253.859 46.8017 253.203 48.5698L252.992 49.1043L252.965 49.1749L252.993 49.2409C254.163 51.9446 255.311 54.5963 256.424 57.1656L256.62 56.9419C254.21 56.0134 251.873 55.1129 249.631 54.249L249.545 54.2158L249.477 54.2818C247.538 56.1659 245.222 57.4394 242.878 58.103C240.526 58.768 238.157 58.8022 236.002 58.4179C233.843 58.0347 231.899 57.2063 230.278 56.1416C228.652 55.0769 227.348 53.7824 226.343 52.4669C225.345 51.1368 224.688 49.7731 224.191 48.5549C223.755 47.31 223.487 46.205 223.357 45.2906C223.302 44.8338 223.253 44.4276 223.21 44.0733C223.201 43.7232 223.194 43.4256 223.187 43.1789C223.18 42.9491 223.174 42.7676 223.169 42.6309C223.163 42.5078 223.158 42.4446 223.153 42.4446C223.149 42.4446 223.146 42.5069 223.142 42.6304C223.14 42.7676 223.138 42.9487 223.135 43.1799C223.135 43.4274 223.134 43.7274 223.134 44.0794C223.17 44.4364 223.211 44.846 223.258 45.3065C223.372 46.2298 223.627 47.3483 224.055 48.6115C224.542 49.8475 225.195 51.2342 226.195 52.5895C227.202 53.9303 228.515 55.2519 230.158 56.3424C231.796 57.4328 233.766 58.285 235.958 58.6847C238.145 59.0844 240.553 59.0596 242.949 58.3903C245.337 57.723 247.7 56.4318 249.681 54.5148L249.526 54.5476C251.767 55.4148 254.102 56.319 256.511 57.2512L256.864 57.3874L256.708 57.0275C255.597 54.4573 254.451 51.8051 253.282 49.101L253.283 49.2372L253.498 48.691C254.169 46.8841 254.533 44.963 254.495 43.0732C254.496 41.1871 254.19 39.3193 253.554 37.6172C252.287 34.2144 249.981 31.4181 247.25 29.7043C245.889 28.8469 244.462 28.1589 242.995 27.7855C242.636 27.6624 242.268 27.5917 241.902 27.5253C241.536 27.4626 241.178 27.3666 240.814 27.3329C240.085 27.2744 239.37 27.1738 238.661 27.2145C237.244 27.1874 235.887 27.4532 234.611 27.7644C233.352 28.1571 232.155 28.6021 231.108 29.2358C228.984 30.4372 227.337 32.0167 226.173 33.6111C225 35.2084 224.312 36.8104 223.875 38.1423C223.777 38.4797 223.684 38.7994 223.597 39.0994C223.505 39.398 223.478 39.6923 223.421 39.9572C223.32 40.4907 223.235 40.9419 223.224 41.3149C223.198 41.6729 223.178 41.9528 223.163 42.1573C223.152 42.3473 223.148 42.4442 223.153 42.4446Z" fill="#263238"/>
</svg>
