<svg width="48" height="48" viewBox="0 0 48 48" fill="none" xmlns="http://www.w3.org/2000/svg">
<g id="email" clip-path="url(#clip0_28_268)">
<path id="Vector" d="M24 0C10.7533 0 0 10.7533 0 24C0 37.2467 10.7533 48 24 48C37.2467 48 48 37.2467 48 24C48 10.7533 37.2467 0 24 0ZM24 1.292C36.5467 1.292 46.708 11.4533 46.708 24C46.708 36.5467 36.5467 46.708 24 46.708C11.4533 46.708 1.292 36.5467 1.292 24C1.292 11.4533 11.4533 1.292 24 1.292ZM23.9587 10.6253V10.6667C23.8235 10.6694 23.6924 10.7131 23.5827 10.792L20.2493 13.292H14V17.9587L11.7493 19.6667C11.5928 19.732 11.467 19.8545 11.3976 20.0094C11.3282 20.1642 11.3205 20.3397 11.376 20.5C11.3546 20.5535 11.3403 20.6095 11.3333 20.6667V35.3333C11.3329 35.3471 11.3329 35.3609 11.3333 35.3747C11.3316 35.4026 11.3316 35.4307 11.3333 35.4587C11.3465 35.473 11.3603 35.4868 11.3747 35.5C11.3742 35.5138 11.3742 35.5276 11.3747 35.5413C11.3865 35.5703 11.4003 35.5983 11.416 35.6253C11.4296 35.6397 11.4438 35.6535 11.4587 35.6667C11.4718 35.681 11.4856 35.6948 11.5 35.708C11.5131 35.7228 11.5269 35.7371 11.5413 35.7507C11.6611 35.8773 11.8258 35.952 12 35.9587C12.0138 35.9591 12.0276 35.9591 12.0413 35.9587H35.8747C35.9796 35.9799 36.088 35.9756 36.1909 35.9461C36.2938 35.9166 36.3881 35.8628 36.4657 35.7892C36.5434 35.7155 36.6022 35.6243 36.6372 35.5231C36.6722 35.422 36.6823 35.3139 36.6667 35.208V20.6267C36.6691 20.5412 36.6551 20.4561 36.6253 20.376C36.6515 20.2379 36.6333 20.0951 36.5735 19.9679C36.5136 19.8408 36.4151 19.7358 36.292 19.668L34 17.9587V13.2507H33.3747C33.3609 13.2502 33.3471 13.2502 33.3333 13.2507H27.7493L24.376 10.7493C24.2547 10.6625 24.1077 10.6188 23.9587 10.6253ZM24 12.1667L25.5 13.292H22.4587L24 12.1667ZM15.3333 14.6253H32.6667V21.5413L32.6253 21.584H32.5827L24 26.9573L15.3333 21.584V18.3333C15.3338 18.3196 15.3338 18.3058 15.3333 18.292V14.6253ZM26.5413 17C26.397 17.0262 26.2653 17.0993 26.1667 17.208L22.292 21.3333L20.4587 19.5C20.3389 19.3734 20.1742 19.2987 20 19.292C19.8718 19.2968 19.7477 19.3384 19.6426 19.4119C19.5374 19.4855 19.4558 19.5878 19.4073 19.7066C19.3589 19.8254 19.3458 19.9556 19.3696 20.0817C19.3933 20.2078 19.453 20.3243 19.5413 20.4173L21.7493 22.6667C21.8313 22.7831 21.9484 22.8703 22.0834 22.9154C22.2185 22.9606 22.3645 22.9612 22.5 22.9173C22.5138 22.9178 22.5276 22.9178 22.5413 22.9173C22.5562 22.9038 22.5704 22.8895 22.584 22.8747C22.5973 22.8751 22.6107 22.8751 22.624 22.8747C22.7084 22.8218 22.78 22.7508 22.8333 22.6667L27.1253 18.1253C27.2121 18.035 27.2716 17.922 27.2971 17.7993C27.3226 17.6766 27.3131 17.5493 27.2695 17.4318C27.2259 17.3144 27.1502 17.2115 27.0508 17.1352C26.9515 17.0588 26.8327 17.0119 26.708 17C26.6805 16.9983 26.6529 16.9983 26.6253 17C26.5974 16.9982 26.5693 16.9982 26.5413 17ZM14 19.6253V20.7507L13.1667 20.2493L14 19.6253ZM34 19.6667L34.792 20.2507L34.6667 20.2907L34 20.708V19.6667ZM35.3333 21.4587V34.0827L28.3747 29.416C28.2606 29.3523 28.1303 29.3236 28 29.3333C27.8601 29.3363 27.7248 29.3832 27.6131 29.4674C27.5013 29.5516 27.4189 29.6688 27.3775 29.8024C27.336 29.936 27.3377 30.0792 27.3822 30.2118C27.4266 30.3445 27.5117 30.4597 27.6253 30.5413L33.792 34.6667H14.208L20.3747 30.5413C20.4883 30.4597 20.5734 30.3445 20.6178 30.2118C20.6623 30.0792 20.664 29.936 20.6225 29.8024C20.5811 29.6688 20.4987 29.5516 20.3869 29.4674C20.2752 29.3832 20.1399 29.3363 20 29.3333C19.8696 29.324 19.7393 29.3532 19.6253 29.4173L12.6667 34.084V21.5L14 22.3333L14.3333 22.5L23.5 28.2507L23.6253 28.3333H23.6667C23.6937 28.3491 23.7217 28.3629 23.7507 28.3747C23.7905 28.3929 23.832 28.4072 23.8747 28.4173C23.9164 28.4213 23.9583 28.4213 24 28.4173C24.0138 28.4178 24.0276 28.4178 24.0413 28.4173C24.0556 28.4178 24.0698 28.4178 24.084 28.4173C24.0973 28.4177 24.1107 28.4177 24.124 28.4173C24.152 28.4191 24.18 28.4191 24.208 28.4173C24.2229 28.4038 24.2371 28.3895 24.2507 28.3747C24.264 28.3751 24.2773 28.3751 24.2907 28.3747L34 22.2933L35.3333 21.4587Z" fill="#1A1F21"/>
</g>
<defs>
<clipPath id="clip0_28_268">
<rect width="48" height="48" fill="white"/>
</clipPath>
</defs>
</svg>
