<svg width="120" height="72" viewBox="0 0 120 72" fill="none" xmlns="http://www.w3.org/2000/svg">
<path d="M11.6913 36.0744L0.482788 38.0774H13.2251L15.7027 33.011L21.366 43.9685L27.3832 27.8268L33.9903 58.3429L39.2996 47.621L66.4359 46.6785L37.5298 45.8537L34.9342 49.8597L28.0911 15.2197L20.5401 36.0744L15.7027 26.1773L11.6913 36.0744Z" fill="#14B9A4"/>
<g clip-path="url(#clip0_184_17720)">
<path d="M64.9611 26.7731L53.7526 28.7761H66.4949L68.9725 23.7097L74.6358 34.6673L80.6529 18.5255L87.2601 49.0417L92.5693 38.3198L119.706 37.3772L90.7996 36.5524L88.2039 40.5584L81.3609 5.91846L73.8099 26.7731L68.9725 16.876L64.9611 26.7731Z" fill="#14B9A4"/>
</g>
<rect width="57.4976" height="64.262" transform="translate(31.7683)" fill="white"/>
<g filter="url(#filter0_d_184_17720)">
<rect x="68.9724" y="30.4399" width="2.53666" height="17.7566" rx="1.26833" transform="rotate(90 68.9724 30.4399)" fill="#14B9A4"/>
<rect x="58.8257" y="23.6753" width="2.53666" height="16.9111" rx="1.26833" fill="#14B9A4"/>
<path d="M54.5981 38.4727L54.0032 43.8261C53.8605 45.1107 52.7746 46.0826 51.4821 46.0826H44.4514C42.5835 46.0826 41.0692 47.5969 41.0692 49.4648V56.1508C41.0692 56.1992 41.0957 56.2436 41.1382 56.2667L52.7075 62.5472C54.5731 63.5599 56.8855 63.2004 58.3556 61.6691V61.6691C61.2313 58.6736 59.1083 53.6926 54.9559 53.6926H49.5247" stroke="#0098DE" stroke-width="1.69111"/>
<path d="M59.6713 43.5459V58.6287C59.6713 59.8155 60.0562 60.9702 60.7682 61.9195V61.9195C61.6745 63.128 63.0969 63.8392 64.6075 63.8392H64.7831C68.0363 63.8392 71.1865 62.6986 73.6857 60.616L74.8912 59.6114" stroke="#0098DE" stroke-width="1.69111"/>
<path d="M85.8833 41.0093V42.9713C85.8833 45.0056 85.3188 46.9999 84.2527 48.7323L82.5011 51.5787L81.2731 53.5741C80.1572 55.3876 77.6632 55.7311 76.0986 54.2868L73.6228 52.0015" stroke="#0098DE" stroke-width="1.69111"/>
<path d="M70.2408 57.4974L68.4737 55.583C66.6267 53.5821 66.6888 50.48 68.6142 48.5545L70.8812 46.2876C72.8624 44.3063 76.0747 44.3063 78.0559 46.2876L79.9647 48.1963" stroke="#0098DE" stroke-width="1.69111"/>
<path d="M67.2811 24.0983V19.0249C67.2811 17.624 68.4168 16.4883 69.8178 16.4883H77.7924C79.7961 16.4883 81.5247 17.8949 81.9319 19.8569L84.8275 33.8085C85.3722 36.433 83.3684 38.8954 80.688 38.8954H70.2406" stroke="#0098DE" stroke-width="1.69111"/>
<path d="M44.874 40.5867V34.6942C44.874 32.8843 46.4603 31.4839 48.2562 31.7084V31.7084" stroke="#0098DE" stroke-width="1.69111"/>
<path d="M75.314 23.6755V29.568C75.314 31.3779 73.7277 32.7783 71.9318 32.5538V32.5538" stroke="#0098DE" stroke-width="1.69111"/>
<path d="M54.1753 24.0981H41.0693C37.8004 24.0981 35.1504 26.7481 35.1504 30.017V30.017V43.8776C35.1504 45.8889 35.5725 47.8777 36.3893 49.7156L36.8415 50.7331" stroke="#0098DE" stroke-width="1.69111"/>
<path d="M46.5652 14.7974H55.7478C57.5697 14.7974 59.1708 16.0051 59.6713 17.7568V17.7568" stroke="#0098DE" stroke-width="1.69111"/>
<path d="M60.0941 6.3418V19.8706" stroke="#0098DE" stroke-width="2.53666"/>
<path d="M38.1099 19.8706L43.6606 10.7516C47.0377 5.20335 54.4482 3.74935 59.6715 7.61005V7.61005" stroke="#0098DE" stroke-width="1.69111"/>
<path d="M78.6963 13.9516L76.5079 10.3408C73.1435 4.78959 65.7369 3.32892 60.5169 7.1872V7.1872" stroke="#0098DE" stroke-width="1.69111"/>
</g>
<defs>
<filter id="filter0_d_184_17720" x="30.9226" y="4.17969" width="59.1885" height="67.2693" filterUnits="userSpaceOnUse" color-interpolation-filters="sRGB">
<feFlood flood-opacity="0" result="BackgroundImageFix"/>
<feColorMatrix in="SourceAlpha" type="matrix" values="0 0 0 0 0 0 0 0 0 0 0 0 0 0 0 0 0 0 127 0" result="hardAlpha"/>
<feOffset dy="3.38221"/>
<feGaussianBlur stdDeviation="1.69111"/>
<feComposite in2="hardAlpha" operator="out"/>
<feColorMatrix type="matrix" values="0 0 0 0 0.0324324 0 0 0 0 0.3 0 0 0 0 0.265946 0 0 0 0.1 0"/>
<feBlend mode="normal" in2="BackgroundImageFix" result="effect1_dropShadow_184_17720"/>
<feBlend mode="normal" in="SourceGraphic" in2="effect1_dropShadow_184_17720" result="shape"/>
</filter>
<clipPath id="clip0_184_17720">
<rect width="65.9531" height="43.1232" fill="white" transform="translate(53.7526 5.91846)"/>
</clipPath>
</defs>
</svg>
