<svg width="16" height="16" viewBox="0 0 16 16" fill="none" xmlns="http://www.w3.org/2000/svg">
<g id="Dashboard icons/Dashboard/Property 27">
<g id="vuesax/outline/logout">
<g id="logout">
<path id="Vector" d="M10.16 14.8467H10.0733C7.11333 14.8467 5.68666 13.68 5.44 11.0667C5.41333 10.7933 5.61333 10.5467 5.89333 10.52C6.16 10.4933 6.41333 10.7 6.44 10.9733C6.63333 13.0667 7.62 13.8467 10.08 13.8467H10.1667C12.88 13.8467 13.84 12.8867 13.84 10.1733V5.82665C13.84 3.11332 12.88 2.15332 10.1667 2.15332H10.08C7.60666 2.15332 6.62 2.94665 6.44 5.07999C6.40666 5.35332 6.17333 5.55999 5.89333 5.53332C5.61333 5.51332 5.41333 5.26665 5.43333 4.99332C5.66 2.33999 7.09333 1.15332 10.0733 1.15332H10.16C13.4333 1.15332 14.8333 2.55332 14.8333 5.82665V10.1733C14.8333 13.4467 13.4333 14.8467 10.16 14.8467Z" fill="#D33030"/>
<path id="Vector_2" d="M10 8.5H2.41333C2.14 8.5 1.91333 8.27333 1.91333 8C1.91333 7.72667 2.14 7.5 2.41333 7.5H10C10.2733 7.5 10.5 7.72667 10.5 8C10.5 8.27333 10.2733 8.5 10 8.5Z" fill="#D33030"/>
<path id="Vector_3" d="M3.9 10.7336C3.77333 10.7336 3.64667 10.6869 3.54667 10.5869L1.31333 8.35355C1.12 8.16022 1.12 7.84022 1.31333 7.64689L3.54667 5.41355C3.74 5.22022 4.06 5.22022 4.25333 5.41355C4.44667 5.60689 4.44667 5.92689 4.25333 6.12022L2.37333 8.00022L4.25333 9.88022C4.44667 10.0736 4.44667 10.3936 4.25333 10.5869C4.16 10.6869 4.02667 10.7336 3.9 10.7336Z" fill="#D33030"/>
</g>
</g>
</g>
</svg>
