<svg width="127" height="96" viewBox="0 0 127 96" fill="none" xmlns="http://www.w3.org/2000/svg">
<g clip-path="url(#clip0_53_4031)">
<rect x="0.5" width="126" height="63" rx="31.5" fill="white"/>
<path d="M16.8604 33.6516L6.15381 35.5649H18.3255L20.6923 30.7254L26.1019 41.1923L31.8497 25.7733L38.161 54.923L43.2325 44.6812L69.1538 43.7808L41.542 42.993L39.0626 46.8196L32.5259 13.7307L25.313 33.6516L20.6923 24.1976L16.8604 33.6516Z" fill="#14B9A4"/>
<g clip-path="url(#clip1_53_4031)">
<path d="M67.7449 24.7669L57.0383 26.6802H69.2101L71.5768 21.8407L76.9865 32.3076L82.7342 16.8886L89.0455 46.0384L94.117 35.7966L120.038 34.8962L92.4265 34.1084L89.9471 37.935L83.4104 4.84607L76.1975 24.7669L71.5768 15.313L67.7449 24.7669Z" fill="#14B9A4"/>
</g>
<rect width="54.9231" height="61.3846" transform="translate(36.0386 -0.807739)" fill="white"/>
<g filter="url(#filter0_d_53_4031)">
<rect x="71.5771" y="28.2692" width="2.42308" height="16.9615" rx="1.21154" transform="rotate(90 71.5771 28.2692)" fill="#14B9A4"/>
<rect x="61.8848" y="21.8076" width="2.42308" height="16.1538" rx="1.21154" fill="#14B9A4"/>
<path d="M57.8462 35.9423L57.278 41.056C57.1416 42.2831 56.1044 43.2115 54.8697 43.2115H48.1539C46.3696 43.2115 44.9231 44.658 44.9231 46.4423V52.8289C44.9231 52.875 44.9484 52.9175 44.9889 52.9395L56.0402 58.9388C57.8223 59.9062 60.0312 59.5628 61.4355 58.1V58.1C64.1824 55.2387 62.1544 50.4807 58.188 50.4807H53" stroke="#0098DE" stroke-width="1.61538"/>
<path d="M62.6924 40.7885V55.1959C62.6924 56.3295 63.0601 57.4325 63.7402 58.3394V58.3394C64.6059 59.4937 65.9646 60.1731 67.4076 60.1731H67.5754C70.6829 60.1731 73.6921 59.0836 76.0793 57.0942L77.2308 56.1346" stroke="#0098DE" stroke-width="1.61538"/>
<path d="M87.7308 38.3654V40.2396C87.7308 42.1827 87.1916 44.0877 86.1732 45.7426L84.5001 48.4615L83.3271 50.3676C82.2611 52.0999 79.8788 52.428 78.3842 51.0484L76.0193 48.8654" stroke="#0098DE" stroke-width="1.61538"/>
<path d="M72.7885 54.1153L71.1006 52.2867C69.3363 50.3754 69.3955 47.4122 71.2348 45.5729L73.4003 43.4075C75.2928 41.5149 78.3612 41.5149 80.2537 43.4075L82.077 45.2307" stroke="#0098DE" stroke-width="1.61538"/>
<path d="M69.9617 22.2115V17.3653C69.9617 16.0271 71.0465 14.9423 72.3847 14.9423H80.0022C81.9163 14.9423 83.5675 16.2859 83.9564 18.16L86.7224 31.487C87.2427 33.9939 85.3286 36.3461 82.7682 36.3461H72.7886" stroke="#0098DE" stroke-width="1.61538"/>
<path d="M48.5576 37.9615V32.3328C48.5576 30.604 50.0729 29.2663 51.7884 29.4808V29.4808" stroke="#0098DE" stroke-width="1.61538"/>
<path d="M77.6348 21.8076V27.4363C77.6348 29.1652 76.1195 30.5029 74.404 30.2884V30.2884" stroke="#0098DE" stroke-width="1.61538"/>
<path d="M57.4424 22.2115H44.9231C41.8006 22.2115 39.2693 24.7429 39.2693 27.8654V27.8654V41.1054C39.2693 43.0266 39.6725 44.9264 40.4527 46.682L40.8847 47.6539" stroke="#0098DE" stroke-width="1.61538"/>
<path d="M50.1731 13.3269H58.9446C60.6848 13.3269 62.2142 14.4805 62.6923 16.1538V16.1538" stroke="#0098DE" stroke-width="1.61538"/>
<path d="M63.0962 5.25V18.1731" stroke="#0098DE" stroke-width="2.42308"/>
<path d="M42.0962 18.173L47.3984 9.4623C50.6243 4.16252 57.7029 2.77362 62.6923 6.46145V6.46145" stroke="#0098DE" stroke-width="1.61538"/>
<path d="M80.8652 12.5192L78.7748 9.07004C75.5611 3.76739 68.4861 2.37213 63.4999 6.05765V6.05765" stroke="#0098DE" stroke-width="1.61538"/>
</g>
</g>
<path d="M23.6818 89V77.8H26.1138L29.6818 84.904L33.2018 77.8H35.6338V89H33.5858V81.272L30.4658 87.4H28.8498L25.7298 81.272V89H23.6818ZM41.6148 89.192C40.8148 89.192 40.1054 89.0213 39.4868 88.68C38.8681 88.3387 38.3828 87.8587 38.0308 87.24C37.6788 86.6213 37.5028 85.9067 37.5028 85.096C37.5028 84.2747 37.6734 83.544 38.0148 82.904C38.3668 82.264 38.8468 81.768 39.4548 81.416C40.0734 81.0533 40.7988 80.872 41.6308 80.872C42.4094 80.872 43.0974 81.0427 43.6948 81.384C44.2921 81.7253 44.7561 82.1947 45.0868 82.792C45.4281 83.3787 45.5988 84.0347 45.5988 84.76C45.5988 84.8773 45.5934 85 45.5828 85.128C45.5828 85.256 45.5774 85.3893 45.5668 85.528H39.5348C39.5774 86.1467 39.7908 86.632 40.1748 86.984C40.5694 87.336 41.0441 87.512 41.5988 87.512C42.0148 87.512 42.3614 87.4213 42.6388 87.24C42.9268 87.048 43.1401 86.8027 43.2788 86.504H45.3588C45.2094 87.0053 44.9588 87.464 44.6068 87.88C44.2654 88.2853 43.8388 88.6053 43.3268 88.84C42.8254 89.0747 42.2548 89.192 41.6148 89.192ZM41.6308 82.536C41.1294 82.536 40.6868 82.68 40.3028 82.968C39.9188 83.2453 39.6734 83.672 39.5668 84.248H43.5188C43.4868 83.7253 43.2948 83.3093 42.9428 83C42.5908 82.6907 42.1534 82.536 41.6308 82.536ZM50.9693 89.192C50.2226 89.192 49.5559 89.0107 48.9693 88.648C48.3826 88.2853 47.9186 87.7893 47.5773 87.16C47.2359 86.5307 47.0653 85.816 47.0653 85.016C47.0653 84.216 47.2359 83.5067 47.5773 82.888C47.9186 82.2587 48.3826 81.768 48.9693 81.416C49.5559 81.0533 50.2226 80.872 50.9693 80.872C51.5666 80.872 52.0893 80.984 52.5373 81.208C52.9853 81.432 53.3479 81.7467 53.6253 82.152V77.48H55.6733V89H53.8493L53.6253 87.864C53.3693 88.216 53.0279 88.5253 52.6013 88.792C52.1853 89.0587 51.6413 89.192 50.9693 89.192ZM51.4013 87.4C52.0626 87.4 52.6013 87.1813 53.0173 86.744C53.4439 86.296 53.6573 85.7253 53.6573 85.032C53.6573 84.3387 53.4439 83.7733 53.0173 83.336C52.6013 82.888 52.0626 82.664 51.4013 82.664C50.7506 82.664 50.2119 82.8827 49.7853 83.32C49.3586 83.7573 49.1453 84.3227 49.1453 85.016C49.1453 85.7093 49.3586 86.28 49.7853 86.728C50.2119 87.176 50.7506 87.4 51.4013 87.4ZM57.8068 89V77.8H62.3028C63.4654 77.8 64.3508 78.072 64.9588 78.616C65.5774 79.1493 65.8868 79.8373 65.8868 80.68C65.8868 81.384 65.6948 81.9493 65.3108 82.376C64.9374 82.792 64.4788 83.0747 63.9348 83.224C64.5748 83.352 65.1028 83.672 65.5188 84.184C65.9348 84.6853 66.1428 85.272 66.1428 85.944C66.1428 86.8293 65.8228 87.56 65.1828 88.136C64.5428 88.712 63.6361 89 62.4628 89H57.8068ZM59.8548 82.504H61.9988C62.5748 82.504 63.0174 82.3707 63.3268 82.104C63.6361 81.8373 63.7908 81.4587 63.7908 80.968C63.7908 80.4987 63.6361 80.1307 63.3268 79.864C63.0281 79.5867 62.5748 79.448 61.9668 79.448H59.8548V82.504ZM59.8548 87.336H62.1428C62.7508 87.336 63.2201 87.1973 63.5508 86.92C63.8921 86.632 64.0628 86.232 64.0628 85.72C64.0628 85.1973 63.8868 84.7867 63.5348 84.488C63.1828 84.1893 62.7081 84.04 62.1108 84.04H59.8548V87.336ZM71.6605 89.192C70.8925 89.192 70.1992 89.016 69.5805 88.664C68.9725 88.312 68.4872 87.8267 68.1245 87.208C67.7725 86.5787 67.5965 85.8533 67.5965 85.032C67.5965 84.2107 67.7778 83.4907 68.1405 82.872C68.5032 82.2427 68.9885 81.752 69.5965 81.4C70.2152 81.048 70.9085 80.872 71.6765 80.872C72.4338 80.872 73.1165 81.048 73.7245 81.4C74.3432 81.752 74.8285 82.2427 75.1805 82.872C75.5432 83.4907 75.7245 84.2107 75.7245 85.032C75.7245 85.8533 75.5432 86.5787 75.1805 87.208C74.8285 87.8267 74.3432 88.312 73.7245 88.664C73.1058 89.016 72.4178 89.192 71.6605 89.192ZM71.6605 87.416C72.1938 87.416 72.6578 87.2187 73.0525 86.824C73.4472 86.4187 73.6445 85.8213 73.6445 85.032C73.6445 84.2427 73.4472 83.6507 73.0525 83.256C72.6578 82.8507 72.1992 82.648 71.6765 82.648C71.1325 82.648 70.6632 82.8507 70.2685 83.256C69.8845 83.6507 69.6925 84.2427 69.6925 85.032C69.6925 85.8213 69.8845 86.4187 70.2685 86.824C70.6632 87.2187 71.1272 87.416 71.6605 87.416ZM80.7791 89C79.9471 89 79.2805 88.7973 78.7791 88.392C78.2778 87.9867 78.0271 87.2667 78.0271 86.232V82.776H76.6671V81.064H78.0271L78.2671 78.936H80.0751V81.064H82.2191V82.776H80.0751V86.248C80.0751 86.632 80.1551 86.8987 80.3151 87.048C80.4858 87.1867 80.7738 87.256 81.1791 87.256H82.1711V89H80.7791Z" fill="#1A1F21"/>
<path d="M87.3368 89L91.4328 77.8H93.7368L97.8328 89H95.6568L94.7608 86.408H90.3928L89.4808 89H87.3368ZM90.9528 84.808H94.2008L92.5688 80.152L90.9528 84.808ZM99.2755 89V77.8H101.324V89H99.2755Z" fill="#14B9A4"/>
<defs>
<filter id="filter0_d_53_4031" x="35.2309" y="3.18494" width="56.5384" height="64.2573" filterUnits="userSpaceOnUse" color-interpolation-filters="sRGB">
<feFlood flood-opacity="0" result="BackgroundImageFix"/>
<feColorMatrix in="SourceAlpha" type="matrix" values="0 0 0 0 0 0 0 0 0 0 0 0 0 0 0 0 0 0 127 0" result="hardAlpha"/>
<feOffset dy="3.23077"/>
<feGaussianBlur stdDeviation="1.61538"/>
<feComposite in2="hardAlpha" operator="out"/>
<feColorMatrix type="matrix" values="0 0 0 0 0.0324324 0 0 0 0 0.3 0 0 0 0 0.265946 0 0 0 0.1 0"/>
<feBlend mode="normal" in2="BackgroundImageFix" result="effect1_dropShadow_53_4031"/>
<feBlend mode="normal" in="SourceGraphic" in2="effect1_dropShadow_53_4031" result="shape"/>
</filter>
<clipPath id="clip0_53_4031">
<rect x="0.5" width="126" height="63" rx="31.5" fill="white"/>
</clipPath>
<clipPath id="clip1_53_4031">
<rect width="63" height="41.1923" fill="white" transform="translate(57.0383 4.84607)"/>
</clipPath>
</defs>
</svg>
