<svg width="48" height="48" viewBox="0 0 48 48" fill="none" xmlns="http://www.w3.org/2000/svg">
<g filter="url(#filter0_d_37_873)">
<path d="M4 20C4 12.4575 4 8.68629 6.34315 6.34315C8.68629 4 12.4575 4 20 4H28C35.5425 4 39.3137 4 41.6569 6.34315C44 8.68629 44 12.4575 44 20V28C44 35.5425 44 39.3137 41.6569 41.6569C39.3137 44 35.5425 44 28 44H20C12.4575 44 8.68629 44 6.34315 41.6569C4 39.3137 4 35.5425 4 28V20Z" fill="white"/>
<path d="M4.5 20C4.5 16.2146 4.50106 13.4259 4.78843 11.2884C5.07387 9.16538 5.63351 7.75989 6.6967 6.6967C7.75989 5.63351 9.16538 5.07387 11.2884 4.78843C13.4259 4.50106 16.2146 4.5 20 4.5H28C31.7854 4.5 34.5741 4.50106 36.7116 4.78843C38.8346 5.07387 40.2401 5.63351 41.3033 6.6967C42.3665 7.75989 42.9261 9.16538 43.2116 11.2884C43.4989 13.4259 43.5 16.2146 43.5 20V28C43.5 31.7854 43.4989 34.5741 43.2116 36.7116C42.9261 38.8346 42.3665 40.2401 41.3033 41.3033C40.2401 42.3665 38.8346 42.9261 36.7116 43.2116C34.5741 43.4989 31.7854 43.5 28 43.5H20C16.2146 43.5 13.4259 43.4989 11.2884 43.2116C9.16538 42.9261 7.75989 42.3665 6.6967 41.3033C5.63351 40.2401 5.07387 38.8346 4.78843 36.7116C4.50106 34.5741 4.5 31.7854 4.5 28V20Z" stroke="#0098DE"/>
<path d="M20 34.3199C19.72 34.3199 19.43 34.2499 19.17 34.1099C18.6 33.8099 18.25 33.2099 18.25 32.5699V31.15C15.23 30.84 13.25 28.6199 13.25 25.4399V19.4399C13.25 15.9999 15.56 13.6899 19 13.6899H29C32.44 13.6899 34.75 15.9999 34.75 19.4399V25.4399C34.75 28.8799 32.44 31.1899 29 31.1899H25.23L20.97 34.03C20.68 34.22 20.34 34.3199 20 34.3199ZM19 15.1799C16.42 15.1799 14.75 16.8499 14.75 19.4299V25.43C14.75 28.01 16.42 29.68 19 29.68C19.41 29.68 19.75 30.02 19.75 30.43V32.56C19.75 32.69 19.83 32.75 19.88 32.78C19.93 32.81 20.03 32.84 20.14 32.77L24.59 29.81C24.71 29.73 24.86 29.68 25.01 29.68H29.01C31.59 29.68 33.26 28.01 33.26 25.43V19.4299C33.26 16.8499 31.59 15.1799 29.01 15.1799H19Z" fill="#0098DE"/>
<path d="M23.9998 24.11C23.5898 24.11 23.2498 23.77 23.2498 23.36V23.15C23.2498 21.99 24.0998 21.42 24.4198 21.2C24.7898 20.95 24.9098 20.78 24.9098 20.52C24.9098 20.02 24.4998 19.61 23.9998 19.61C23.4998 19.61 23.0898 20.02 23.0898 20.52C23.0898 20.93 22.7498 21.27 22.3398 21.27C21.9298 21.27 21.5898 20.93 21.5898 20.52C21.5898 19.19 22.6698 18.11 23.9998 18.11C25.3298 18.11 26.4098 19.19 26.4098 20.52C26.4098 21.66 25.5698 22.23 25.2598 22.44C24.8698 22.7 24.7498 22.87 24.7498 23.15V23.36C24.7498 23.78 24.4098 24.11 23.9998 24.11Z" fill="#0098DE"/>
<path d="M24 26.6C23.58 26.6 23.25 26.26 23.25 25.85C23.25 25.44 23.59 25.1 24 25.1C24.41 25.1 24.75 25.44 24.75 25.85C24.75 26.26 24.42 26.6 24 26.6Z" fill="#0098DE"/>
</g>
<defs>
<filter id="filter0_d_37_873" x="0" y="0" width="48" height="48" filterUnits="userSpaceOnUse" color-interpolation-filters="sRGB">
<feFlood flood-opacity="0" result="BackgroundImageFix"/>
<feColorMatrix in="SourceAlpha" type="matrix" values="0 0 0 0 0 0 0 0 0 0 0 0 0 0 0 0 0 0 127 0" result="hardAlpha"/>
<feMorphology radius="4" operator="dilate" in="SourceAlpha" result="effect1_dropShadow_37_873"/>
<feOffset/>
<feComposite in2="hardAlpha" operator="out"/>
<feColorMatrix type="matrix" values="0 0 0 0 0 0 0 0 0 0.596078 0 0 0 0 0.870588 0 0 0 0.12 0"/>
<feBlend mode="normal" in2="BackgroundImageFix" result="effect1_dropShadow_37_873"/>
<feBlend mode="normal" in="SourceGraphic" in2="effect1_dropShadow_37_873" result="shape"/>
</filter>
</defs>
</svg>
