<svg width="18" height="18" viewBox="0 0 18 18" fill="none" xmlns="http://www.w3.org/2000/svg">
<g id="vuesax/outline/export">
<g id="export">
<path id="Vector" d="M9.75008 8.81219C9.60758 8.81219 9.46508 8.75969 9.35258 8.64719C9.13508 8.42969 9.13508 8.06969 9.35258 7.85219L15.5026 1.70219C15.7201 1.48469 16.0801 1.48469 16.2976 1.70219C16.5151 1.91969 16.5151 2.27969 16.2976 2.49719L10.1476 8.64719C10.0351 8.75969 9.89258 8.81219 9.75008 8.81219Z" fill="#595D62"/>
<path id="Vector_2" d="M16.4999 5.6625C16.1924 5.6625 15.9374 5.4075 15.9374 5.1V2.0625H12.8999C12.5924 2.0625 12.3374 1.8075 12.3374 1.5C12.3374 1.1925 12.5924 0.9375 12.8999 0.9375H16.4999C16.8074 0.9375 17.0624 1.1925 17.0624 1.5V5.1C17.0624 5.4075 16.8074 5.6625 16.4999 5.6625Z" fill="#595D62"/>
<path id="Vector_3" d="M11.25 17.0625H6.75C2.6775 17.0625 0.9375 15.3225 0.9375 11.25V6.75C0.9375 2.6775 2.6775 0.9375 6.75 0.9375H8.25C8.5575 0.9375 8.8125 1.1925 8.8125 1.5C8.8125 1.8075 8.5575 2.0625 8.25 2.0625H6.75C3.2925 2.0625 2.0625 3.2925 2.0625 6.75V11.25C2.0625 14.7075 3.2925 15.9375 6.75 15.9375H11.25C14.7075 15.9375 15.9375 14.7075 15.9375 11.25V9.75C15.9375 9.4425 16.1925 9.1875 16.5 9.1875C16.8075 9.1875 17.0625 9.4425 17.0625 9.75V11.25C17.0625 15.3225 15.3225 17.0625 11.25 17.0625Z" fill="#595D62"/>
</g>
</g>
</svg>
