<svg width="18" height="18" viewBox="0 0 18 18" fill="none" xmlns="http://www.w3.org/2000/svg">
<g id="vuesax/outline/trash">
<g id="trash">
<path id="Vector" d="M15.75 5.04785C15.735 5.04785 15.7125 5.04785 15.69 5.04785C11.7225 4.65035 7.7625 4.50035 3.84 4.89785L2.31 5.04785C1.995 5.07785 1.7175 4.85285 1.6875 4.53785C1.6575 4.22285 1.8825 3.95285 2.19 3.92285L3.72 3.77285C7.71 3.36785 11.7525 3.52535 15.8025 3.92285C16.11 3.95285 16.335 4.23035 16.305 4.53785C16.2825 4.83035 16.035 5.04785 15.75 5.04785Z" fill="#D33030"/>
<path id="Vector_2" d="M6.375 4.29C6.345 4.29 6.315 4.29 6.2775 4.2825C5.9775 4.23 5.7675 3.9375 5.82 3.6375L5.985 2.655C6.105 1.935 6.27 0.9375 8.0175 0.9375H9.9825C11.7375 0.9375 11.9025 1.9725 12.015 2.6625L12.18 3.6375C12.2325 3.945 12.0225 4.2375 11.7225 4.2825C11.415 4.335 11.1225 4.125 11.0775 3.825L10.9125 2.85C10.8075 2.1975 10.785 2.07 9.99 2.07H8.025C7.23 2.07 7.215 2.175 7.1025 2.8425L6.93 3.8175C6.885 4.095 6.645 4.29 6.375 4.29Z" fill="#D33030"/>
<path id="Vector_3" d="M11.4075 17.0627H6.5925C3.975 17.0627 3.87 15.6152 3.7875 14.4452L3.3 6.89268C3.2775 6.58518 3.5175 6.31518 3.825 6.29268C4.14 6.27768 4.4025 6.51018 4.425 6.81768L4.9125 14.3702C4.995 15.5102 5.025 15.9377 6.5925 15.9377H11.4075C12.9825 15.9377 13.0125 15.5102 13.0875 14.3702L13.575 6.81768C13.5975 6.51018 13.8675 6.27768 14.175 6.29268C14.4825 6.31518 14.7225 6.57768 14.7 6.89268L14.2125 14.4452C14.13 15.6152 14.025 17.0627 11.4075 17.0627Z" fill="#D33030"/>
<path id="Vector_4" d="M10.245 12.9375H7.7475C7.44 12.9375 7.185 12.6825 7.185 12.375C7.185 12.0675 7.44 11.8125 7.7475 11.8125H10.245C10.5525 11.8125 10.8075 12.0675 10.8075 12.375C10.8075 12.6825 10.5525 12.9375 10.245 12.9375Z" fill="#D33030"/>
<path id="Vector_5" d="M10.875 9.9375H7.125C6.8175 9.9375 6.5625 9.6825 6.5625 9.375C6.5625 9.0675 6.8175 8.8125 7.125 8.8125H10.875C11.1825 8.8125 11.4375 9.0675 11.4375 9.375C11.4375 9.6825 11.1825 9.9375 10.875 9.9375Z" fill="#D33030"/>
</g>
</g>
</svg>
