<svg width="22" height="22" viewBox="0 0 22 22" fill="none" xmlns="http://www.w3.org/2000/svg">
<g id="x" clip-path="url(#clip0_131_16)">
<path id="Vector" d="M11 21.125C16.5919 21.125 21.125 16.5919 21.125 11C21.125 5.40812 16.5919 0.875 11 0.875C5.40812 0.875 0.875 5.40812 0.875 11C0.875 16.5919 5.40812 21.125 11 21.125Z" fill="#1A1F21"/>
<path id="path1009" d="M5.4042 5.375L10.0373 11.58L5.375 16.625H6.42437L10.5063 12.2079L13.8042 16.625H17.375L12.4812 10.071L16.8208 5.375H15.7714L12.0124 9.4429L8.975 5.375H5.4042ZM6.94734 6.14916H8.58775L15.8317 15.8508H14.1912L6.94734 6.14916Z" fill="white"/>
</g>
<defs>
<clipPath id="clip0_131_16">
<rect width="21" height="21" fill="white" transform="translate(0.5 0.5)"/>
</clipPath>
</defs>
</svg>
